<svg xmlns="http://www.w3.org/2000/svg" width="1024" height="1024" viewBox="0 0 1024 1024" version="1.1">
	<path d="M 361.451 158.285 C 359.370 159.519, 353.598 164.299, 260.252 242.084 C 228.441 268.592, 206.737 286, 205.498 286 C 204.369 286, 202.466 286.685, 201.270 287.523 C 199.264 288.928, 199.007 288.882, 197.965 286.935 C 194.284 280.057, 186.397 274, 181.121 274 C 176.329 274, 174.926 276.249, 173.683 285.928 C 173.583 286.714, 172.234 287.695, 170.686 288.109 C 166.657 289.186, 165.166 290.714, 163.846 295.119 C 163.207 297.253, 162.095 299, 161.377 299 C 158.937 299, 153.151 305.035, 152.468 308.292 C 152.099 310.056, 150.204 313.159, 148.258 315.186 C 143.599 320.039, 142.639 327.028, 145.877 332.516 C 148.886 337.616, 148.692 338.161, 142.003 343.416 C 135.454 348.562, 134.103 351.419, 136.025 356.059 C 138.972 363.176, 145.276 363.959, 151.281 357.955 C 155.012 354.223, 156.910 353.959, 156.985 357.160 C 156.993 357.523, 158.760 360.047, 160.911 362.768 C 166.680 370.067, 166.862 374.661, 161.491 377.440 C 156.350 380.100, 155.603 383.932, 159.443 387.941 C 161.998 390.608, 162.009 390.682, 160.112 392.399 C 154.236 397.716, 155.029 402.977, 161.719 403.058 C 172.029 403.182, 173.892 404.003, 176.824 409.711 C 182.003 419.794, 199.658 442.613, 203.746 444.508 C 209.197 447.035, 211.581 449.543, 217.046 458.500 C 219.731 462.900, 224.869 469.875, 228.465 474 C 232.060 478.125, 237.675 484.926, 240.941 489.112 C 248.591 498.917, 255.231 504.717, 260.390 506.100 C 262.650 506.706, 269.225 509.441, 275 512.177 C 280.775 514.914, 288.200 518.188, 291.500 519.454 C 294.800 520.720, 304.700 525.148, 313.500 529.294 C 322.300 533.441, 333.325 538.030, 338 539.493 C 354.106 544.531, 353.728 544.323, 374.908 559.706 L 384.316 566.539 386.981 575.088 C 388.447 579.791, 391.020 586.082, 392.698 589.069 C 394.673 592.584, 395.984 596.617, 396.413 600.500 C 396.777 603.800, 398.177 610.550, 399.523 615.500 C 401.854 624.066, 401.877 643.153, 399.562 646.899 C 399.283 647.351, 398.557 653.072, 397.951 659.611 C 397 669.851, 396.487 671.985, 394.255 675 C 374.553 701.605, 361.719 711.791, 343.723 715.107 L 337.332 716.285 327.518 711.636 C 312.110 704.337, 305.504 699.499, 271.346 670.500 C 245.478 648.538, 226.615 640, 203.968 640 C 170.865 640, 132.378 664.509, 120.116 693.399 C 119.580 694.662, 125.162 693.424, 130.250 691.152 C 157.438 679.008, 191.134 689.587, 240.262 725.692 C 267.464 745.684, 287.592 755.129, 314.417 760.491 L 325.500 762.706 316.500 765.394 C 291.978 772.720, 286.769 774.577, 277.673 779.233 C 237.101 800.005, 219.004 841.255, 232.620 881.930 C 242.570 911.656, 271.178 946.314, 268.584 925.500 C 267.236 914.691, 271.014 895.610, 276.603 885 C 287.678 863.973, 301.263 854.263, 336.051 842.508 C 356.227 835.691, 367.372 830.860, 378.362 824.167 L 385.225 819.988 384.528 823.702 C 383.732 827.948, 379.893 836.323, 374.050 846.564 C 371.032 851.853, 369.486 856.240, 367.899 864.024 C 366.179 872.455, 361.398 888.143, 357.467 898.250 C 355.978 902.076, 365.618 900.538, 371.484 896.013 C 381.516 888.273, 398.627 869.666, 405.622 858.890 C 414.638 845, 418.191 837.318, 433.553 798.500 C 438.445 786.139, 442.896 776.536, 443.449 777.151 C 443.759 777.496, 431.796 813.839, 430.794 815.594 C 430.509 816.092, 429.956 817.834, 429.565 819.465 C 428.879 822.326, 427.684 825.212, 422.305 837 C 412.405 858.698, 401.454 874.323, 386.464 888.140 C 384.074 890.343, 382.243 892.675, 382.395 893.323 C 382.548 893.970, 382.483 894.162, 382.252 893.748 C 381.904 893.124, 373 898.765, 373 899.610 C 373 899.759, 412.759 899.893, 461.353 899.907 L 549.707 899.934 554.735 890.217 C 557.500 884.873, 561.423 876.675, 563.452 872 C 565.481 867.325, 567.539 862.600, 568.025 861.500 C 570.461 855.994, 571.836 852, 571.294 852 C 570.962 852, 571.386 851.212, 572.238 850.250 C 573.089 849.288, 574.995 844.675, 576.473 840 C 577.951 835.325, 579.850 829.852, 580.693 827.837 C 581.536 825.822, 581.923 823.685, 581.554 823.087 C 581.184 822.489, 581.317 822, 581.849 822 C 582.380 822, 583.392 819.750, 584.097 817 C 584.801 814.250, 585.725 812, 586.149 812 C 586.573 812, 586.876 810.763, 586.822 809.250 C 586.768 807.738, 587.262 804.250, 587.920 801.500 C 588.578 798.750, 589.515 794.700, 590.003 792.500 C 590.491 790.300, 591.377 786.475, 591.971 784 C 593.987 775.607, 594.686 768.091, 593.565 766.868 C 592.795 766.028, 592.846 765.902, 593.750 766.412 C 594.460 766.813, 595.055 766.553, 595.128 765.809 C 595.292 764.127, 595.573 762.142, 596.927 753.102 C 597.536 749.033, 598.079 741.833, 598.134 737.102 C 598.188 732.371, 598.560 728.050, 598.961 727.500 C 601.734 723.691, 602.368 701.418, 599.696 701.637 C 598.775 701.712, 598.268 701.375, 598.570 700.887 C 598.871 700.399, 599.710 700, 600.433 700 C 601.306 700, 601.764 698.571, 601.796 695.750 C 601.904 686.144, 602.702 672.371, 603.259 670.500 C 603.587 669.400, 604.156 661.413, 604.525 652.750 C 605.256 635.545, 604.500 633.212, 600.959 641.750 C 598.547 647.565, 595.744 653.140, 596.433 650.750 C 596.802 649.469, 596.343 648.981, 594.719 648.930 C 592.590 648.862, 592.581 648.825, 594.500 648 C 595.600 647.527, 596.050 647.102, 595.500 647.055 C 594.950 647.008, 595.175 646.526, 596 645.985 C 597.333 645.109, 597.333 644.891, 596 644.015 C 594.735 643.185, 594.794 643.028, 596.372 643.015 C 597.936 643.003, 598.036 642.749, 596.980 641.476 C 596.284 640.638, 596.004 639.663, 596.357 639.309 C 596.711 638.956, 597 639.192, 597 639.833 C 597 640.475, 597.525 641, 598.167 641 C 598.808 641, 599.071 640.737, 598.749 640.416 C 598.428 640.095, 599.028 637.324, 600.083 634.260 C 602.244 627.977, 602.574 624.615, 600.500 630 C 598.880 634.206, 598.537 632.626, 600.098 628.149 C 600.702 626.417, 601.628 625, 602.157 625 C 602.685 625, 602.877 624.610, 602.582 624.133 C 602.288 623.657, 604.174 616.119, 606.773 607.383 L 611.500 591.500 612.226 605.500 C 612.625 613.200, 613.360 624, 613.860 629.500 C 614.947 641.463, 614.347 659.029, 612.544 668 L 611.238 674.500 611.019 666.500 C 610.328 641.273, 609.401 624.066, 608.696 623.361 C 606.634 621.302, 606.035 626.263, 606.747 639.500 C 607.742 658.006, 607.336 698.318, 606.047 709 C 605.482 713.675, 604.778 719.975, 604.481 723 C 597.544 793.686, 581.920 851.908, 559.372 891.098 C 556.967 895.277, 555 898.990, 555 899.348 C 555 899.707, 579.975 900, 610.500 900 C 641.025 900, 666 899.756, 666 899.457 C 666 898.198, 658.502 885.176, 653.159 877.158 C 649.987 872.396, 644.857 864.450, 641.759 859.500 C 638.662 854.550, 635.295 849.600, 634.278 848.500 C 633.262 847.400, 629.648 842.225, 626.247 837 C 616.618 822.204, 616.581 822.164, 614.272 824.254 C 610.275 827.871, 608.723 824.961, 611.066 818.241 C 611.652 816.559, 611.990 813.562, 611.816 811.580 L 611.500 807.977 607.250 811.873 C 604.913 814.016, 603 815.587, 603 815.366 C 603 815.144, 604.350 812.432, 606 809.340 C 609.586 802.621, 609.540 803.008, 606.750 802.969 C 603.236 802.919, 600.725 798.598, 600.855 792.823 C 601.021 785.457, 601.819 785.319, 605.193 792.071 C 607.124 795.934, 609.394 798.859, 611.373 800.030 C 616.446 803.033, 617 803.860, 617 808.426 C 617 812.307, 617.870 813.937, 625.124 823.637 C 632.985 834.147, 646.321 853.411, 648.568 857.500 C 649.172 858.600, 651.462 862.425, 653.655 866 C 655.849 869.575, 661.130 878.688, 665.391 886.250 C 672.590 899.027, 673.346 900, 676.069 900 C 679.686 900, 679.708 900.356, 675.577 892.152 C 665.617 872.376, 648.696 845.487, 633.714 825.630 C 628.458 818.664, 623.774 811.250, 622.376 807.685 C 620.782 803.615, 618.397 800.044, 615.156 796.870 C 612.494 794.264, 608.719 789.064, 606.767 785.316 L 603.217 778.500 605.050 765.500 C 607.467 748.354, 609.784 729.608, 611.539 713 C 613.662 692.905, 613.652 692.987, 616.517 672.500 C 619.367 652.112, 619.324 655.806, 617.371 599.808 C 617.032 590.077, 617.068 579.187, 617.452 575.607 L 618.149 569.098 625.824 564.488 C 642.611 554.406, 665.762 544.878, 686.734 539.419 C 702.428 535.335, 708.739 533.106, 722 526.967 C 734.321 521.262, 739.883 519.376, 751.303 517.027 C 756.190 516.021, 758.083 514.935, 763.303 510.140 C 771.972 502.176, 790.985 485.648, 800.500 477.806 C 804.900 474.179, 811.581 467.776, 815.346 463.577 C 819.112 459.378, 824.062 454.998, 826.346 453.844 C 836.092 448.920, 863 419.961, 863 414.397 C 863 410.079, 866.988 408, 875.268 408 C 883.320 408, 884.907 405.165, 880.873 397.987 C 878.880 394.442, 878.848 394.054, 880.373 391.878 C 883.815 386.964, 881.525 381.015, 876.179 380.985 C 870.226 380.951, 870.456 379.513, 877.478 372.871 C 881.176 369.373, 885.331 364.585, 886.711 362.230 L 889.220 357.948 893.588 361.974 C 898.915 366.885, 902.446 367.241, 906.242 363.250 C 911.912 357.288, 910.747 353.991, 900.074 345.803 L 896.649 343.174 899.439 336.957 C 903.270 328.419, 902.675 323.865, 897.073 318.864 C 894.833 316.864, 892.998 314.389, 892.996 313.364 C 892.989 309.916, 889.281 305.248, 885.577 304.026 C 883.374 303.298, 881.999 302.202, 881.996 301.172 C 881.989 297.861, 878.148 293.095, 874.788 292.229 C 872.325 291.595, 871.434 290.769, 871.237 288.941 C 869.622 273.933, 856.278 274.855, 848.237 290.530 C 846.597 293.725, 846.220 293.970, 845.065 292.579 C 844.345 291.710, 842.541 291, 841.056 291 C 838.992 291, 831.405 285.175, 808.820 266.250 C 771.269 234.785, 714.835 187.261, 700.758 175.250 C 689.095 165.299, 688.932 165.211, 686.571 167.571 C 683.475 170.668, 682.401 169.519, 717 200.118 C 732.125 213.495, 753.295 232.328, 764.043 241.970 C 774.792 251.611, 794.367 268.995, 807.543 280.600 C 831.276 301.504, 831.499 301.737, 831.421 305.600 C 831.289 312.084, 831.141 312.522, 827.033 318.574 C 821.330 326.978, 821.212 328.504, 825.532 338.071 L 829.208 346.212 827.416 350.187 C 825.844 353.673, 825.309 354.086, 823.062 353.549 C 811.035 350.676, 808.810 352.603, 812.863 362.383 C 816.050 370.073, 816.148 369.896, 799.980 385.792 C 788.393 397.185, 784.724 401.416, 783.925 404.308 C 782.763 408.517, 776.469 414.023, 764.557 421.250 C 760.739 423.567, 755.114 427.767, 752.057 430.585 C 749.001 433.402, 744.700 436.290, 742.500 437.002 C 736.828 438.839, 732.503 442.005, 728.931 446.936 C 725.927 451.084, 725.720 451.185, 721.547 450.559 C 717.873 450.008, 716.818 450.282, 714.233 452.458 C 712.104 454.249, 710.035 455, 707.230 455 C 704.793 455, 700.201 456.389, 695.387 458.583 C 687.815 462.034, 687.237 462.141, 679.711 461.474 L 671.897 460.783 662.180 465.809 C 647.213 473.551, 625.857 476.424, 612 472.558 C 608.975 471.714, 604.985 471.018, 603.134 471.012 C 600.875 471.004, 598.200 469.849, 595 467.500 C 588.988 463.087, 585.265 462.990, 575.840 467 C 567.194 470.679, 567.809 470.685, 559.129 466.851 C 548.569 462.187, 548.911 460.171, 561.963 450.174 C 564.963 447.876, 565 447.734, 565 438.506 L 565 429.163 568.603 426.936 C 578.362 420.905, 578.227 406.698, 568.373 402.767 L 564.660 401.286 568.351 400.594 C 584.208 397.619, 583.207 377.672, 567 373.666 C 565.193 373.219, 563.789 371.514, 561.936 367.516 L 559.372 361.985 564.477 360.376 C 569.574 358.769, 569.597 358.772, 577.541 361.970 C 592.551 368.012, 600.636 363.768, 602.497 348.870 C 603.443 341.300, 601.846 340.664, 598.321 347.207 C 593.102 356.895, 587.889 358.693, 577.302 354.458 C 573.806 353.059, 570.509 352.186, 569.973 352.517 C 568.542 353.401, 568.770 352.371, 570.952 348.095 C 572.025 345.990, 573.436 342.154, 574.087 339.569 C 576.125 331.475, 582.383 329.881, 590.016 335.512 C 594.414 338.756, 596.001 338.698, 592.924 335.405 C 589.203 331.422, 585.264 329.778, 580.374 330.167 C 575.312 330.569, 575.375 330.746, 578.041 323.621 C 580.706 316.497, 583.424 313.166, 588.421 310.896 C 592.004 309.269, 592.183 309.041, 589.898 309.022 C 584.068 308.973, 577.512 315.871, 574.423 325.306 C 573.391 328.458, 571.008 332.351, 568.361 335.207 C 565.963 337.796, 564 340.216, 564 340.586 C 564 340.955, 565.830 339.287, 568.067 336.879 C 571.946 332.703, 572.050 332.656, 570.317 335.865 C 568.075 340.018, 557.672 351, 555.981 351 C 555.300 351, 556.633 349.313, 558.943 347.250 C 563.432 343.243, 563.781 342.212, 564.672 330.350 C 565.142 324.079, 564.810 322.032, 561.971 313.717 C 557.790 301.473, 558.224 298.356, 564.992 292.011 C 567.638 289.530, 570.124 286.375, 570.515 285 C 572.478 278.116, 581.035 271.032, 587.446 270.985 C 589.122 270.972, 589.226 270.796, 588.008 270.026 C 583.214 266.995, 571.779 274.424, 568.488 282.709 C 567.269 285.776, 565.627 287.614, 562.434 289.486 C 553.989 294.435, 551.038 302.783, 553.885 313.671 C 555.772 320.887, 555.588 326.340, 553.321 330.390 C 552.455 331.939, 552.184 331.540, 551.606 327.865 C 550.114 318.387, 548.853 315.608, 543.831 310.743 C 539.315 306.367, 538.922 305.630, 539.559 302.732 C 540.190 299.860, 540.096 299.675, 538.630 300.892 C 536.218 302.894, 536.607 305.231, 540.597 312.736 C 545.272 321.528, 545.083 327.255, 539.945 332.557 C 536.160 336.462, 534.221 337.119, 536.426 333.750 C 537.236 332.512, 538.213 329.529, 538.598 327.121 L 539.297 322.742 541.126 325.121 C 542.895 327.421, 542.956 327.431, 542.978 325.405 C 542.990 324.253, 542.046 322.453, 540.881 321.405 C 538.145 318.946, 527.534 305.888, 526.255 303.407 C 525.715 302.358, 525.014 298.350, 524.699 294.500 C 523.198 276.204, 510.632 261.642, 496.712 262.068 C 494.143 262.146, 494.760 262.474, 503 265.404 C 514.382 269.452, 523.567 283.835, 521.569 294.483 C 520.831 298.417, 519 299.271, 519 295.682 C 519 292.321, 516.314 283.793, 514.528 281.483 C 513.669 280.372, 513.215 280.159, 513.496 281 C 513.771 281.825, 514.638 286.775, 515.422 292 C 516.206 297.225, 517.196 302.400, 517.623 303.500 C 518.292 305.226, 517.970 305.140, 515.271 302.875 C 513.550 301.431, 510.423 299.930, 508.321 299.540 C 504.122 298.761, 501 296.497, 501 294.231 C 501 284.848, 490.886 279.810, 472.844 280.205 C 454.710 280.603, 451.247 278.446, 447.633 264.500 C 446.625 260.609, 445.166 257.709, 443.483 256.250 C 439.533 252.825, 438.412 253.566, 441.766 257.386 C 443.766 259.664, 444.972 262.364, 445.452 265.636 C 447.506 279.643, 453.432 284.782, 470.033 286.952 C 474.690 287.561, 479.748 288.309, 481.274 288.614 C 485.311 289.422, 489.748 293.567, 490.549 297.277 C 490.931 299.050, 492.084 302.159, 493.110 304.186 C 495.412 308.734, 492.221 311.188, 489.345 307.082 C 486.328 302.775, 480.215 300.687, 468.429 299.939 C 457.496 299.245, 453.332 298.036, 448.500 294.151 C 447.400 293.266, 448.039 294.209, 449.920 296.245 C 451.802 298.281, 455.177 300.575, 457.420 301.342 L 461.500 302.737 456.750 303.482 C 446.291 305.122, 436.719 301.034, 431.408 292.659 C 429.809 290.137, 428.163 288.057, 427.750 288.037 C 424.584 287.882, 431.424 298.636, 436.910 302.438 C 444.974 308.026, 451.707 308.782, 463.432 305.416 C 473.406 302.552, 483.925 304.731, 486.883 310.274 C 489.840 315.815, 485.436 318.860, 481.400 314.064 C 476.325 308.032, 469.567 306.480, 458.991 308.916 C 445.311 312.068, 438.065 309.356, 430.807 298.368 C 425.880 290.907, 419.162 286.438, 416.651 288.949 C 415.916 289.684, 416.126 290, 417.350 290 C 420.859 290, 424.779 292.998, 426.776 297.209 C 430.424 304.902, 434.874 310.053, 439.819 312.308 C 443.856 314.148, 444.172 314.492, 442.119 314.807 C 437.355 315.540, 433.098 313.894, 428.073 309.376 C 422.232 304.125, 421.129 304.801, 426.750 310.187 C 433.600 316.750, 439.890 318.443, 448.007 315.909 C 460.041 312.153, 466.923 311.924, 470.477 315.164 C 471.015 315.654, 469.967 315.536, 468.149 314.902 C 463.318 313.218, 456.559 314.509, 449.290 318.505 C 442.878 322.029, 440 322.812, 440 321.031 C 440 320.499, 440.675 320.322, 441.500 320.638 C 442.326 320.955, 443 320.668, 443 319.999 C 443 318.497, 437.881 319.591, 436.775 321.329 C 436.236 322.177, 436.026 322.185, 436.015 321.361 C 436.007 320.735, 435.212 320.285, 434.250 320.361 C 433.278 320.438, 432.622 319.911, 432.775 319.176 C 432.929 318.432, 432.567 318.149, 431.951 318.530 C 430.680 319.316, 426 315.267, 426 313.382 C 426 312.684, 425.212 311.525, 424.250 310.807 C 423.288 310.088, 420.412 307.011, 417.859 303.968 C 408.913 293.305, 387.803 287.950, 385.261 295.699 C 384.967 296.594, 385.707 296.658, 388.177 295.949 C 395.510 293.846, 404.544 295.393, 409.641 299.625 C 411.214 300.930, 411.734 301.733, 410.798 301.410 C 409.459 300.948, 409.743 302.016, 412.133 306.430 C 414.603 310.989, 415.050 312.745, 414.528 315.833 L 413.887 319.629 410.460 316.398 C 406.147 312.330, 401.074 310.629, 395.133 311.260 C 390.078 311.797, 384.395 313.728, 385.276 314.609 C 385.580 314.913, 386.738 314.676, 387.849 314.081 C 393.650 310.976, 405.081 314.025, 410.500 320.124 L 413.500 323.500 410.500 320.860 C 401.493 312.934, 387.599 311.754, 382.048 318.442 C 380.906 319.818, 381.209 319.809, 384.627 318.369 C 397.142 313.099, 412.283 320.980, 414.955 334.156 C 416.867 343.581, 423.774 351.949, 429.700 352.022 C 432.381 352.055, 427.509 355.681, 422.841 357.128 C 414.613 359.678, 409.715 354.540, 411.973 345.730 C 412.656 343.063, 412.998 340.665, 412.733 340.400 C 411.771 339.438, 405.693 345.491, 404.319 348.779 L 402.910 352.151 399.086 348.696 C 391.944 342.244, 384.730 341.591, 373.273 346.357 C 370.098 347.678, 366.375 349.055, 365 349.416 C 361.404 350.361, 366.706 347.367, 374 344.335 C 377.025 343.077, 378.752 342.037, 377.839 342.024 C 376.925 342.011, 372.497 343.575, 368 345.500 C 358.293 349.655, 353.748 349.877, 345.750 346.588 C 339.340 343.952, 338.474 344.538, 343.067 348.403 C 350.525 354.678, 360.874 355.201, 372.068 349.867 C 387.262 342.628, 400.197 347.325, 402.363 360.868 C 403.616 368.703, 413.492 375.969, 422.917 375.990 C 425.346 375.996, 427.035 376.299, 426.669 376.664 C 426.304 377.029, 424.205 377.258, 422.005 377.171 C 406.432 376.561, 399.237 396.813, 412.621 403.581 L 416.736 405.661 413.974 406.704 C 410.042 408.188, 407.482 412.588, 407.595 417.667 C 407.725 423.488, 412 428.394, 412 422.723 C 412 417.537, 417.194 414.119, 419.978 417.473 C 420.983 418.685, 420.518 419.613, 417.350 422.713 C 411.455 428.482, 408.840 429.986, 404.691 429.993 C 402.408 429.997, 401.130 430.401, 401.500 431 C 402.921 433.300, 409.740 432.024, 414.864 428.500 C 420.725 424.468, 422.257 424.031, 419.241 427.250 C 413.237 433.659, 413.651 443.774, 420.155 449.601 C 424.943 453.890, 427.838 453.520, 425.460 448.923 C 423.482 445.098, 423.630 442.120, 425.989 438.250 C 428.614 433.944, 430 434.144, 430 438.829 C 430 441.430, 430.986 444.145, 433.076 447.301 C 436.673 452.732, 436.439 453.514, 430.955 454.391 C 428.009 454.862, 425.513 456.311, 422.025 459.574 L 417.183 464.102 413.356 462.051 C 408.582 459.492, 406.380 459.484, 399.761 461.999 C 393.656 464.320, 362.762 465.043, 361.436 462.896 C 359.828 460.294, 352.389 458.044, 345.326 458.022 C 339.681 458.005, 336.513 457.344, 330.468 454.924 C 324.703 452.615, 321.128 451.832, 316.143 451.787 C 311.194 451.742, 308.987 451.264, 307.488 449.912 C 306.381 448.914, 303.397 447.178, 300.856 446.055 C 298.316 444.931, 295.474 442.846, 294.541 441.422 C 293.608 439.998, 291.320 438.196, 289.458 437.418 C 287.595 436.640, 281.668 431.615, 276.286 426.251 C 270.904 420.888, 263.499 413.917, 259.832 410.761 C 255.342 406.897, 252.948 404.042, 252.505 402.021 C 252.130 400.313, 246.474 392.450, 239.384 383.778 C 225.245 366.486, 224.872 365.678, 227.972 359.061 C 231.236 352.091, 230.586 350.500, 224.475 350.500 C 219.753 350.500, 219.500 350.364, 219.455 347.804 C 219.430 346.322, 218.626 344.245, 217.671 343.189 C 216.010 341.353, 216.096 340.868, 219.619 332.239 L 223.305 323.211 221.140 319.355 C 216.491 311.076, 215.140 307.286, 214.897 301.844 L 214.644 296.188 242.572 271.983 C 257.932 258.670, 285.554 234.440, 303.954 218.139 C 322.354 201.837, 343.954 182.910, 351.954 176.077 C 366.456 163.692, 369.242 160.037, 365.830 157.874 C 364.138 156.801, 363.921 156.821, 361.451 158.285 M 359.872 162.669 C 359.118 163.586, 349.050 172.239, 337.500 181.897 C 325.950 191.556, 306.370 208.017, 293.990 218.479 C 281.609 228.941, 258.107 248.663, 241.764 262.307 C 225.420 275.951, 211.767 287.568, 211.424 288.124 C 209.128 291.837, 213.761 288.700, 225.717 278.444 C 243.505 263.185, 243 263.601, 243 264.222 C 243 264.515, 236.250 270.700, 228 277.967 C 219.750 285.234, 213 291.420, 213 291.712 C 213 292.005, 213.784 291.627, 214.743 290.872 C 217.930 288.362, 265.995 246.674, 311.444 207 C 331.291 189.675, 351.236 172.424, 355.765 168.664 C 360.294 164.904, 364 161.641, 364 161.414 C 364 160.309, 361.084 161.196, 359.872 162.669 M 692.479 174.256 C 695.218 176.590, 720.381 198.750, 748.397 223.500 C 776.414 248.250, 802.844 271.498, 807.132 275.163 C 811.419 278.828, 818.508 284.981, 822.883 288.836 C 830.276 295.350, 833.837 296.989, 834.737 294.290 C 834.926 293.721, 825.051 284.784, 812.791 274.430 C 800.531 264.077, 781.725 248.139, 771 239.013 C 760.275 229.887, 741.150 213.691, 728.500 203.021 C 715.850 192.351, 702.065 180.556, 697.868 176.810 C 693.670 173.065, 689.620 170.003, 688.868 170.006 C 688.115 170.010, 689.741 171.923, 692.479 174.256 M 574.574 250.250 C 572.063 254.089, 569.975 259.866, 570.893 260.434 C 572.212 261.249, 580 252.345, 580 250.022 C 580 247.228, 576.454 247.376, 574.574 250.250 M 364.301 252.657 C 363.311 255.239, 366.164 259.273, 370.785 261.824 C 377.450 265.502, 378.666 264.409, 374.483 258.500 C 369.222 251.068, 365.689 249.040, 364.301 252.657 M 533.279 255.382 C 537.291 259.101, 538.362 264.197, 537.182 273.955 C 536.561 279.097, 536.523 283.247, 537.086 284.725 C 538.233 287.744, 538.234 288.262, 537.087 287.554 C 535.570 286.616, 534.957 279.851, 535.836 273.750 C 536.970 265.887, 535.476 266.445, 534.090 274.403 C 532.857 281.485, 533.599 284.862, 537.241 288.750 C 540.174 291.882, 541.028 291.559, 539.888 287.750 C 539.334 285.898, 539.196 280.153, 539.568 274.392 C 540.284 263.282, 538.446 256.379, 534.160 254.086 C 530.872 252.326, 530.527 252.833, 533.279 255.382 M 366.988 255.977 C 367.960 257.794, 370.984 260, 372.502 260 C 372.851 260, 372.175 258.650, 371 257 C 368.532 253.535, 365.230 252.693, 366.988 255.977 M 402.240 271.476 C 409.230 273.270, 415.434 276.343, 418.740 279.649 C 421.963 282.872, 422.806 281.940, 420.102 278.143 C 417.144 273.989, 410.180 270.886, 402.736 270.405 L 396.500 270.002 402.240 271.476 M 804 270.243 C 804 270.712, 822.007 286.770, 829.993 293.423 L 832.486 295.500 830.493 293.121 C 829.397 291.813, 823.775 286.669, 818 281.690 C 803.867 269.505, 804 269.613, 804 270.243 M 179.255 278.250 C 178.710 278.938, 177.959 283.012, 177.586 287.306 C 176.589 298.764, 173 304.739, 173 294.941 C 173 286.905, 168.439 291.288, 165.602 302.049 C 163.236 311.024, 161.816 312.372, 161 306.416 C 160.081 299.706, 155 308.451, 155 316.743 C 155 320.314, 153.689 320.983, 152.050 318.250 C 151.079 316.631, 150.851 316.677, 149 318.861 C 146.044 322.350, 146.536 326.276, 151.004 334.832 C 153.207 339.049, 156.361 345.875, 158.014 350 C 160.954 357.334, 167.160 366.144, 168.475 364.848 C 168.839 364.490, 167.513 362.069, 165.527 359.468 C 162.347 355.302, 158.982 348.931, 159.009 347.128 C 159.015 346.783, 160.312 348.750, 161.893 351.500 C 165.233 357.310, 172.517 365.776, 173.420 364.897 C 173.760 364.566, 172.342 362.435, 170.269 360.161 C 166.162 355.657, 160.355 346, 161.754 346 C 162.815 346, 167.493 352.101, 167.518 353.518 C 167.543 354.871, 171.716 359, 173.059 359 C 173.641 359, 173.840 358.550, 173.500 358 C 173.160 357.450, 173.359 357, 173.941 357 C 175.265 357, 175.272 357.623, 173.977 360.043 C 173.151 361.586, 173.248 361.842, 174.477 361.371 C 175.555 360.957, 176 361.425, 176 362.976 C 176 364.306, 176.491 364.987, 177.250 364.708 C 177.938 364.456, 178.320 363.631, 178.101 362.875 C 174.437 350.259, 186.284 340.042, 195.347 348 C 199.609 351.741, 199.665 351.737, 201.408 347.566 C 202.867 344.075, 207.759 340.677, 210.558 341.212 C 211.616 341.414, 213.158 338.827, 215.708 332.575 L 219.348 323.650 215.728 317.031 C 213.328 312.643, 212.005 308.807, 211.804 305.653 L 211.500 300.895 209.310 303.639 C 208.105 305.149, 207.389 306.860, 207.720 307.442 C 208.050 308.024, 207.948 308.162, 207.491 307.748 C 206.311 306.677, 203 309.949, 203 312.186 C 203 313.218, 203.644 314.310, 204.432 314.612 C 205.219 314.914, 205.844 315.913, 205.821 316.831 C 205.797 317.749, 206.109 319.962, 206.514 321.750 C 209.881 336.618, 193.819 307.919, 189.505 291.360 C 187.428 283.385, 188.707 279.993, 191.150 287 C 192.194 289.995, 193.401 290.779, 194.423 289.125 C 196.891 285.131, 182.166 274.574, 179.255 278.250 M 860.131 282.306 C 855.952 283.787, 850.414 291.038, 851.440 293.685 C 852.205 295.661, 851.907 295.891, 855.781 290.337 C 858.239 286.812, 856.040 295.981, 851.849 306.735 C 846.872 319.505, 834.163 337.208, 837.480 326.750 C 838.434 323.745, 838.445 321.863, 837.522 319.709 C 837.100 318.724, 837.147 318.026, 837.627 318.157 C 839.707 318.727, 843.095 316.746, 842.747 315.165 C 842.546 314.249, 841.812 313.624, 841.116 313.775 C 840.421 313.926, 840.120 313.616, 840.447 313.085 C 840.775 312.555, 839.814 310.981, 838.312 309.588 L 835.580 307.055 834.464 311.452 C 833.850 313.871, 831.694 318.249, 829.674 321.183 C 825.222 327.647, 825.213 328.401, 829.471 338.494 C 832.358 345.339, 833.249 346.572, 835.671 347.070 C 840.807 348.128, 842.892 349.900, 844.133 354.266 C 845.836 360.254, 846.114 360.362, 850.854 356.876 L 855.105 353.750 857.367 355.875 C 858.611 357.044, 860.357 358, 861.246 358 C 862.136 358, 863.874 359.462, 865.108 361.250 C 866.342 363.038, 867.504 364.693, 867.688 364.929 C 867.873 365.165, 869.351 364.377, 870.972 363.179 C 872.593 361.981, 874.612 361, 875.460 361 C 876.307 361, 877 360.325, 877 359.500 C 877 358.675, 877.450 358, 878 358 C 879.661 358, 879.169 359.083, 875.321 363.897 C 869.936 370.635, 869.262 371.733, 871.880 369.500 C 873.170 368.400, 876.487 364.462, 879.250 360.750 C 885.014 353.008, 886.127 352.201, 882.814 358.167 C 879.609 363.938, 871.174 373, 869.007 373 C 867.088 373, 866.025 374.729, 866.721 376.720 C 869.374 384.318, 900.122 335.496, 898.415 326.396 C 897.529 321.677, 895.506 320.232, 892.981 322.517 C 891.892 323.503, 890.963 323.903, 890.918 323.405 C 890.260 316.163, 888.387 310.651, 885.810 308.371 C 883.701 306.506, 883.697 306.510, 884.298 309.627 C 884.682 311.617, 884.385 313.434, 883.482 314.627 C 882.702 315.657, 882.049 316.151, 882.032 315.724 C 881.863 311.610, 877.455 298.165, 875.812 296.750 C 872.454 293.860, 871.450 294.556, 871.843 299.500 C 872.124 303.032, 871.872 304, 870.668 304 C 868.652 304, 868.207 302.244, 867.506 291.534 C 866.804 280.808, 866.265 280.133, 860.131 282.306 M 474.500 283.918 C 471.971 284.492, 472.453 284.692, 477.572 285.189 C 484.284 285.840, 492.485 289.406, 491.381 291.193 C 490.960 291.874, 491.145 292.029, 491.855 291.590 C 492.567 291.150, 493.695 292.110, 494.759 294.061 C 497.834 299.698, 500.974 302.835, 504.262 303.558 C 511.073 305.054, 514.003 308.888, 513.996 316.297 C 513.990 323.840, 507.418 330.706, 501.649 329.198 C 499.907 328.742, 500.213 328.389, 503.594 326.953 C 514.693 322.240, 514.649 310.473, 503.514 305.548 C 498.927 303.520, 497.728 302.397, 495.541 298.081 C 492.372 291.827, 491.787 291.642, 493.534 297.446 C 495.597 304.301, 496.789 305.932, 500.959 307.600 C 510.674 311.487, 507.040 320.899, 494.056 325.480 C 485.911 328.354, 486.117 326.268, 494.342 322.582 C 503.641 318.414, 506.641 312.653, 500.615 310.533 C 497.965 309.602, 497.443 309.865, 493.709 314.013 C 491.487 316.481, 490.011 317.600, 490.430 316.500 C 492.193 311.871, 492.083 311.657, 489.534 314.750 C 488.061 316.538, 486.290 318, 485.599 318 C 484.908 318, 482.353 319.315, 479.921 320.923 C 477.490 322.530, 474.296 324.146, 472.824 324.513 C 471.352 324.880, 469.369 326.039, 468.419 327.090 C 467.468 328.140, 466.231 329, 465.671 329 C 463.396 329, 469.392 324.180, 475.003 321.499 C 478.301 319.922, 480.988 318.378, 480.973 318.066 C 480.927 317.077, 470.575 310.998, 469.006 311.039 C 468.178 311.061, 468.850 311.688, 470.500 312.434 C 474.623 314.296, 477.631 316.702, 476.834 317.499 C 476.470 317.864, 475.120 317.602, 473.836 316.917 C 471.699 315.778, 471.618 315.816, 472.893 317.360 C 474.808 319.682, 473.975 320.140, 469.940 318.983 C 468.055 318.442, 464.935 318.056, 463.007 318.125 C 459.552 318.248, 459.563 318.261, 463.731 318.940 C 470.713 320.078, 469.814 321, 461.722 321 C 455.028 321, 453.774 321.300, 451.306 323.492 L 448.500 325.984 451.759 324.414 C 453.821 323.421, 456.111 323.085, 457.997 323.499 C 462.245 324.432, 462.737 325.994, 458.570 325.318 C 454.432 324.646, 447.316 328.342, 444.128 332.820 L 442.126 335.632 446.878 333.280 C 450.481 331.497, 452.220 331.146, 454.065 331.829 C 456.462 332.716, 456.449 332.741, 453.226 333.450 C 451.425 333.846, 448.725 335.189, 447.226 336.436 C 443.814 339.273, 440.615 340.978, 435.500 342.683 L 431.500 344.016 437.500 343.470 C 445.137 342.775, 448.576 342.333, 453.250 341.448 C 455.629 340.998, 457 341.117, 457 341.775 C 457 343.019, 448.131 346.199, 446.857 345.412 C 445.645 344.663, 440.167 348.158, 436.500 352.019 C 433.409 355.274, 429.728 357.622, 424.500 359.672 C 420.151 361.377, 424.190 361.335, 430.500 359.609 C 433.250 358.857, 436.127 358.074, 436.893 357.871 C 437.660 357.667, 439.761 355.927, 441.563 354.003 C 446.319 348.928, 446.956 351.095, 442.577 357.453 C 433.573 370.527, 424.683 374.191, 414.530 369.015 C 412.388 367.923, 410.428 367.239, 410.173 367.494 C 409.142 368.525, 420.775 372.980, 424.500 372.981 C 428.326 372.981, 437.947 368.513, 439.487 366.021 C 439.834 365.459, 440.568 365, 441.118 365 C 441.668 365, 441.804 365.508, 441.420 366.130 C 441.002 366.806, 441.260 367.080, 442.063 366.812 C 442.800 366.567, 443.930 364.301, 444.574 361.778 C 447.198 351.491, 452.805 344.941, 458.898 345.044 C 461.332 345.086, 461.258 345.216, 457.748 347.069 C 453.160 349.491, 449.093 355.390, 448.413 360.610 L 447.906 364.500 450.407 359.877 C 452.751 355.547, 458.730 349.397, 459.677 350.343 C 459.911 350.578, 458.729 352.934, 457.051 355.580 C 455.373 358.227, 454 360.996, 454 361.736 C 454 362.475, 453.069 364.905, 451.930 367.137 C 450.792 369.368, 450.117 371.450, 450.430 371.764 C 450.744 372.077, 451 371.802, 451 371.152 C 451 370.033, 456.657 366.012, 458.243 366.004 C 458.652 366.002, 457.349 368.137, 455.348 370.750 C 451.105 376.288, 448.761 381.396, 449.194 384.162 C 449.400 385.478, 451.136 383.139, 454.500 377.011 C 457.250 372.002, 460.400 366.699, 461.500 365.226 C 463.092 363.095, 463.526 360.857, 463.626 354.247 C 463.833 340.652, 471.453 327.935, 479.327 328.044 L 482.500 328.088 478.815 330.035 C 476.788 331.105, 474.821 332.480, 474.444 333.090 C 473.975 333.850, 474.454 333.828, 475.965 333.019 C 477.178 332.369, 478.372 332.039, 478.618 332.284 C 478.863 332.530, 477.768 333.268, 476.183 333.924 C 474.599 334.580, 472.334 336.840, 471.151 338.945 C 468.245 344.115, 468.455 345.219, 471.588 341.244 C 473 339.453, 475.079 337.493, 476.209 336.888 C 477.959 335.951, 477.862 336.315, 475.547 339.349 C 471.956 344.058, 469.865 351.227, 470.108 358 C 470.254 362.080, 469.765 364.382, 468.213 366.916 C 463.250 375.017, 462.671 390.877, 466.977 400.780 C 470.182 408.152, 470.546 406.690, 467.513 398.631 C 464.168 389.745, 464.174 382.316, 467.531 375.105 C 470.730 368.232, 471.578 368.925, 468.987 376.296 C 466.999 381.954, 466.470 390.787, 467.902 394.445 C 468.468 395.893, 468.983 394.766, 469.913 390.035 C 470.601 386.540, 472.589 381.164, 474.332 378.090 L 477.500 372.500 478.136 380.336 C 478.800 388.514, 480.972 393.473, 481.032 386.950 C 481.060 383.934, 481.225 383.712, 482.343 385.183 C 483.406 386.582, 483.632 384.873, 483.678 375.083 C 483.709 368.413, 484.211 362.475, 484.836 361.400 C 485.708 359.898, 485.947 361.174, 485.975 367.500 C 486.011 375.308, 486.687 380.330, 489.337 392.448 C 490.699 398.679, 491.394 398.800, 492.458 392.992 C 492.889 390.637, 492.431 387.576, 491.049 383.593 C 489.123 378.043, 488.268 371.934, 489.603 373.269 C 489.934 373.601, 491.226 376.690, 492.473 380.134 C 495.110 387.418, 496.655 385.832, 495.089 377.447 C 493.765 370.358, 496.494 374.248, 498.028 381.635 C 499.760 389.980, 498.451 396.758, 493.390 405.638 C 488.595 414.053, 488.198 416.052, 492.421 410.514 C 501.728 398.313, 504.228 377.318, 498.362 360.624 C 495.705 353.062, 497.360 352.851, 501.279 360.252 C 504.365 366.079, 508.070 370.490, 512.572 373.695 C 516.818 376.719, 519.979 383.608, 520.102 390.110 C 520.200 395.243, 520.246 395.333, 521.064 392 C 522.197 387.386, 521.316 382.491, 518.388 377.124 C 515.340 371.539, 515.371 371.416, 519.153 374.109 L 522.306 376.354 521.623 373.427 C 521.243 371.797, 518.955 368.727, 516.462 366.500 C 513.999 364.300, 511.987 362.168, 511.992 361.763 C 512.008 360.320, 520.851 365.354, 521.909 367.408 C 524.090 371.644, 526.001 378.350, 526.030 381.876 C 526.055 384.793, 526.257 385.163, 527.068 383.772 C 528.587 381.164, 527.051 372.354, 524.393 368.437 C 521.714 364.489, 522.954 363.863, 526.476 367.385 C 529.585 370.494, 531.185 376.671, 531.010 384.888 C 530.778 395.767, 531.031 399.932, 532.065 402.276 C 532.986 404.365, 533.016 404.343, 532.545 401.915 C 532.270 400.494, 532.529 397.794, 533.120 395.915 C 533.711 394.037, 534.780 390.025, 535.495 387 L 536.795 381.500 536.913 386 C 536.999 389.299, 537.289 390.100, 538 389 C 540.388 385.305, 537.519 375.135, 532.404 369.159 C 527.278 363.170, 528.908 362.813, 534.741 368.646 C 540.804 374.709, 542.827 380.660, 541.124 387.422 C 538.053 399.616, 541.154 407.116, 549.184 406.918 L 552.500 406.837 549 405.327 C 544.624 403.438, 542 401.138, 542 399.190 C 542 397.863, 542.201 397.864, 543.750 399.206 C 544.712 400.039, 548.650 402.430, 552.500 404.518 C 561.112 409.190, 563.797 411.497, 565.865 416 L 567.472 419.500 567.806 415.583 C 568.386 408.786, 563.779 404.733, 551.811 401.511 C 543.263 399.210, 542.743 398.368, 543.543 388.114 C 544.757 372.554, 536.240 358, 525.919 358 C 521.547 358, 513.612 354.390, 509.754 350.645 C 504.274 345.327, 506.517 344.817, 513.203 349.859 C 516.295 352.190, 521.830 354.969, 526.500 356.533 C 538.725 360.628, 546 366.268, 546 371.650 C 546 373.225, 547.603 373.451, 548.499 372.002 C 549.609 370.205, 545.600 364.832, 540.500 361.281 C 534.388 357.026, 536.727 357.241, 549.785 362.133 C 551.042 362.604, 553.292 365.002, 554.785 367.463 C 557.756 372.359, 559 373.097, 559 369.965 C 559 366.920, 556.114 363.097, 551.723 360.325 C 546.842 357.244, 547.547 356.333, 553.520 358.006 C 557.498 359.119, 558.875 359.052, 564.039 357.488 C 569.608 355.802, 570.244 355.792, 574.168 357.334 C 579.917 359.592, 580.126 358.723, 574.490 355.995 L 569.875 353.761 563.872 355.729 C 560.571 356.812, 556.684 357.471, 555.235 357.194 C 552.821 356.733, 552.960 356.585, 556.908 355.419 C 561.354 354.106, 565.415 350.987, 567.217 347.500 C 567.887 346.204, 567.062 346.627, 564.875 348.699 C 560.828 352.535, 554.160 355.560, 552.784 354.184 C 552.254 353.654, 548.209 353.443, 543.666 353.709 C 537.248 354.084, 535.072 353.851, 533.500 352.625 C 531.620 351.157, 531.838 351.062, 537.136 351.032 C 554.333 350.935, 565.247 334.526, 559.501 317.408 C 558.068 313.138, 556.514 308.038, 556.048 306.073 C 555.294 302.893, 555.190 302.801, 555.100 305.239 C 555.045 306.745, 555.925 311.350, 557.056 315.473 C 562.675 335.953, 539.028 357.472, 525.628 344.073 C 523.169 341.614, 524.249 341.471, 529.989 343.496 C 535.214 345.340, 541.317 343.172, 544.842 338.222 C 547.798 334.070, 547.547 333.606, 544.171 336.983 C 541.633 339.521, 534.249 342.582, 533.198 341.531 C 532.970 341.304, 534.520 340.393, 536.642 339.508 C 545.287 335.902, 549.529 328.208, 547.122 320.500 C 546.272 317.781, 546.188 317.975, 546.219 322.579 C 546.299 334.418, 529.361 343.765, 518.684 337.774 C 517.483 337.100, 513.800 336.289, 510.500 335.971 C 505.293 335.470, 504.896 335.296, 507.500 334.651 C 515.695 332.624, 517.693 331.939, 519.519 330.534 C 521.215 329.228, 520.930 329.239, 517.534 330.608 C 515.353 331.487, 513.430 331.790, 513.260 331.280 C 513.090 330.771, 511.500 330.515, 509.726 330.713 C 506.624 331.058, 506.679 330.975, 511.154 328.565 C 525.277 320.960, 522.716 305.716, 506.713 302.135 C 500.528 300.751, 499.781 300.117, 498.069 294.800 C 495.321 286.265, 485.050 281.522, 474.500 283.918 M 358.556 290.910 C 357.129 293.218, 359.304 295, 363.548 295 C 368.447 295, 370.208 293.357, 367.462 291.348 C 365.375 289.823, 359.409 289.529, 358.556 290.910 M 199.015 294.485 C 197.157 296.402, 195.982 298.314, 196.404 298.735 C 196.827 299.156, 198.093 298.375, 199.218 297 C 200.344 295.625, 201.767 294.650, 202.382 294.833 C 202.997 295.017, 203.169 294.836, 202.766 294.432 C 202.362 294.028, 202.812 293.105, 203.766 292.381 C 205.237 291.264, 205.264 291.059, 203.946 291.032 C 203.092 291.014, 200.872 292.568, 199.015 294.485 M 577.941 297.321 C 577.301 299.861, 576.138 302.470, 575.357 303.119 C 574.151 304.120, 574.096 303.877, 574.996 301.510 C 576.607 297.273, 575.247 297.165, 573.481 301.390 C 571.856 305.281, 572.179 307, 574.536 307 C 576.427 307, 579.002 302.925, 580.051 298.273 C 581.317 292.660, 579.339 291.768, 577.941 297.321 M 176.315 298.465 C 174.860 301.517, 174.826 302.442, 176.034 306.215 L 177.404 310.500 178.036 305.500 C 178.384 302.750, 179.017 299.262, 179.442 297.750 C 180.575 293.728, 178.329 294.242, 176.315 298.465 M 522.044 301.747 C 522 305.027, 527.858 313, 530.313 313 C 530.906 313, 529.920 311.481, 528.121 309.625 C 526.322 307.769, 524.229 304.507, 523.469 302.375 L 522.088 298.500 522.044 301.747 M 865.684 307.204 C 865.828 311.217, 865.972 314.725, 866.005 315 C 866.037 315.275, 866.724 314.626, 867.532 313.559 C 869.524 310.925, 869.346 305.007, 867.189 302.204 C 865.457 299.953, 865.427 300.051, 865.684 307.204 M 181.658 304.675 C 180.212 306.121, 181.229 313.061, 184.467 323.853 C 189.796 341.614, 190.568 340.497, 186.095 321.500 C 184.318 313.955, 183.582 308.889, 184.113 307.855 C 184.996 306.135, 182.906 303.428, 181.658 304.675 M 417.137 309.947 C 418.292 312.392, 419.624 317.480, 420.098 321.252 C 422.265 338.515, 433.121 344.740, 439.713 332.500 C 443.667 325.157, 443.661 325.249, 440.113 325.770 C 435.116 326.504, 428.574 322.770, 423.808 316.464 C 421.439 313.328, 418.496 309.579, 417.268 308.132 L 415.037 305.500 417.137 309.947 M 166.598 308.736 C 165.130 310.203, 166.221 314.201, 168.651 316.257 C 170.986 318.233, 182 339.310, 182 341.802 C 182 342.326, 182.675 343.315, 183.500 344 C 187.714 347.498, 177.897 323.445, 172.147 316.186 C 168.515 311.600, 168.025 309.828, 171.155 312.595 L 173.310 314.500 171.595 311.834 C 169.811 309.061, 167.627 307.706, 166.598 308.736 M 860.571 309.571 C 858.740 311.402, 858.497 312.429, 860.134 311.417 C 861.649 310.481, 861.136 313.280, 856.581 330.795 C 850.670 353.524, 852.959 352.557, 859.646 329.500 C 864.953 311.204, 865.245 304.897, 860.571 309.571 M 877 314.167 C 877 314.808, 876.696 315.029, 876.324 314.658 C 875.550 313.883, 871 317.858, 871 319.309 C 871 319.837, 871.951 319.060, 873.114 317.582 C 874.277 316.104, 875.465 315.132, 875.755 315.422 C 876.045 315.712, 874.624 317.973, 872.597 320.447 C 868.299 325.692, 858 347.713, 858 351.657 C 858 353.884, 860.297 350.481, 863.001 344.250 C 869.527 329.206, 873.173 321.989, 873.991 322.494 C 875.195 323.238, 880 317.184, 880 314.923 C 880 313.865, 879.325 313, 878.500 313 C 877.675 313, 877 313.525, 877 314.167 M 334.374 316.469 C 331.394 318.648, 333.398 321.002, 338.219 320.985 C 346.280 320.956, 347.215 317.740, 339.658 316.036 C 337.222 315.486, 335.527 315.625, 334.374 316.469 M 525.412 319.166 C 526.268 324.997, 524.452 329.719, 520.015 333.191 L 516.789 335.716 521.644 336.265 C 530.831 337.304, 537.611 331.249, 535.202 324.157 L 534.300 321.500 533.600 324.615 C 532.922 327.634, 529.252 332.585, 528.357 331.690 C 528.113 331.447, 528.677 329.649, 529.608 327.696 C 531.532 323.661, 530.539 319.678, 526.772 316.322 C 524.736 314.508, 524.730 314.521, 525.412 319.166 M 157.463 318.254 C 156.791 319.987, 173.495 347, 175.240 347 C 176.866 347, 175.828 344.615, 171.618 338.679 C 166.795 331.878, 160.833 320.596, 161.546 319.620 C 161.796 319.279, 161.707 319.218, 161.349 319.484 C 160.991 319.751, 160.123 319.188, 159.420 318.234 C 158.209 316.590, 158.107 316.591, 157.463 318.254 M 335.500 318 C 335.129 318.601, 336.403 318.994, 338.691 318.985 C 341.519 318.973, 342.113 318.720, 341 318 C 339.044 316.736, 336.281 316.736, 335.500 318 M 416.715 318.649 C 415.252 322.651, 419.714 342.620, 421.640 340.693 C 421.977 340.356, 423.577 340.764, 425.195 341.601 C 426.812 342.437, 428.668 342.905, 429.318 342.640 C 429.968 342.375, 429.728 342.122, 428.785 342.079 C 422.887 341.807, 418.543 333.489, 417.776 321 C 417.560 317.480, 417.329 316.968, 416.715 318.649 M 522.081 319.500 C 521.845 322.606, 519.647 325.934, 516.433 328.054 C 512.584 330.590, 514.557 330.568, 518.723 328.027 C 522.002 326.028, 523.557 322.630, 522.705 319.329 C 522.279 317.683, 522.217 317.701, 522.081 319.500 M 382.426 320.894 C 380.185 321.912, 376.229 324.365, 373.636 326.345 C 368.090 330.578, 362.509 332.298, 355.827 331.835 C 350.155 331.441, 349.576 332.375, 354.488 333.996 C 359.584 335.678, 367.801 333.720, 373.741 329.407 C 376.358 327.507, 380.886 324.834, 383.802 323.466 C 386.719 322.098, 388.830 320.534, 388.493 319.989 C 387.674 318.664, 387.171 318.739, 382.426 320.894 M 884.662 325.329 C 883.101 327.984, 881.566 329.899, 881.251 329.585 C 880.936 329.270, 881.358 328.222, 882.187 327.256 C 883.017 326.290, 884.022 324.825, 884.420 324 C 884.819 323.175, 883.987 323.850, 882.571 325.500 C 881.156 327.150, 880.236 329.133, 880.528 329.907 C 881.100 331.426, 878.261 336.132, 871.237 345.311 C 868.790 348.507, 867.059 351.392, 867.388 351.722 C 869.364 353.697, 888.288 327.372, 887.821 323.300 C 887.510 320.587, 887.412 320.649, 884.662 325.329 M 150.718 326.648 C 150.138 327.586, 161.284 343.355, 166.785 349.379 C 172.373 355.499, 169.833 349.543, 163.103 340.742 C 152.437 326.795, 151.374 325.586, 150.718 326.648 M 871.780 330.219 C 869.729 333.356, 866 340.753, 866 341.683 C 866 342.854, 869.237 338.010, 871.748 333.082 C 874.180 328.307, 874.201 326.515, 871.780 330.219 M 891.243 333.750 C 889.634 335.813, 885.974 341, 883.109 345.278 C 880.245 349.556, 877.499 352.809, 877.008 352.505 C 876.517 352.202, 875.352 353.563, 874.419 355.530 C 873.419 357.637, 872.193 358.904, 871.436 358.614 C 870.729 358.343, 869.404 359.261, 868.491 360.655 C 866.171 364.195, 870.510 362.975, 873.584 359.223 C 875.052 357.431, 876.296 356.844, 877.796 357.236 C 879.462 357.672, 880.383 357.015, 882.038 354.211 C 883.791 351.241, 883.850 350.875, 882.384 352.065 C 880.835 353.322, 880.726 353.314, 881.504 352 C 883.537 348.567, 891.422 337.295, 893.625 334.673 C 894.931 333.119, 896 331.431, 896 330.923 C 896 328.987, 894.058 330.141, 891.243 333.750 M 455.250 336.662 C 454.563 336.940, 454 337.501, 454 337.910 C 454 338.916, 459.883 337.998, 460.571 336.885 C 461.146 335.955, 457.391 335.798, 455.250 336.662 M 607 338.465 C 604.618 339.794, 604.700 339.833, 608.740 339.299 C 611.463 338.940, 613.530 339.195, 614.515 340.012 C 615.358 340.712, 616.374 340.959, 616.773 340.561 C 619.332 338.001, 611.025 336.220, 607 338.465 M 486.513 341.314 C 484.694 345.668, 484.570 350.856, 486.194 354.685 C 487.271 357.226, 487.453 356.576, 488.065 348 C 488.839 337.164, 488.628 336.254, 486.513 341.314 M 510 340.565 C 510 340.875, 511.366 342.279, 513.036 343.684 C 514.706 345.089, 516.738 347.527, 517.553 349.102 C 519.038 351.975, 523.583 355, 526.413 355 C 527.334 355, 526.182 353.206, 523.463 350.408 C 521.008 347.883, 519 345.491, 519 345.092 C 519 344.375, 511.795 340, 510.614 340 C 510.276 340, 510 340.254, 510 340.565 M 422 341.671 C 422 344.509, 430.136 349.409, 433.221 348.430 C 435.055 347.848, 434.669 347.484, 430.572 345.929 C 427.935 344.928, 424.928 343.340, 423.889 342.400 C 422.850 341.459, 422 341.131, 422 341.671 M 476.561 344.332 C 472.744 349.336, 469.857 362.442, 473 360.500 C 473.550 360.160, 474 358.615, 474 357.067 C 474 353.440, 476.587 346.114, 478.687 343.794 C 479.586 342.800, 480.069 341.736, 479.762 341.428 C 479.454 341.120, 478.013 342.427, 476.561 344.332 M 500.053 343.137 C 499.964 345.894, 506.298 354.225, 509.940 356.142 C 514.736 358.666, 514.867 357.769, 510.356 353.311 C 508.235 351.215, 505.061 347.700, 503.303 345.500 C 501.237 342.916, 500.087 342.079, 500.053 343.137 M 207.538 346.349 C 206.523 347.091, 204.973 349.228, 204.093 351.099 C 201.852 355.864, 197.918 356.251, 194.248 352.069 C 188.068 345.027, 177.198 352.104, 181.506 360.364 C 183.974 365.095, 182.147 367.990, 176.679 368.014 C 170.330 368.041, 169 368.898, 169 372.962 C 169 376.907, 167.205 379.244, 163.250 380.449 C 160.291 381.351, 160.395 384.083, 163.500 387 C 166.713 390.019, 166.647 391.006, 163 394.500 C 158.497 398.814, 159.085 399.713, 166.750 400.226 C 170.463 400.474, 174.148 400.863, 174.941 401.089 C 175.733 401.315, 176.553 400.712, 176.764 399.750 C 177.025 398.557, 176.534 398, 175.223 398 C 174.164 398, 171.838 397.491, 170.053 396.869 C 165.664 395.338, 167.962 394.075, 173.321 395.072 C 177.552 395.859, 179.761 395.041, 178.578 393.126 C 178.221 392.549, 176.387 391.788, 174.501 391.434 C 168.870 390.378, 167.651 387.808, 173.102 388.487 C 175.521 388.788, 178.344 389.300, 179.375 389.624 C 184.509 391.239, 182.611 387.440, 177.197 385.264 L 171.500 382.974 176 383.423 C 178.475 383.670, 181.512 384.179, 182.750 384.553 C 186.364 385.646, 185.290 383.662, 181.224 381.735 C 176.545 379.517, 173.472 377.195, 174.222 376.445 C 174.539 376.128, 177.520 377.243, 180.847 378.923 C 189.476 383.279, 190.712 380.075, 182.388 374.931 C 180.524 373.779, 179 372.438, 179 371.950 C 179 370.473, 182.310 372.111, 185.643 375.237 C 189.476 378.832, 195.608 377.133, 192.094 373.450 C 191.014 372.319, 186.802 358.865, 187.355 358.312 C 187.565 358.101, 189.228 361.320, 191.050 365.464 C 194.820 374.043, 194.301 373.634, 198.038 370.973 C 199.603 369.858, 202.485 368.277, 204.442 367.460 C 207.095 366.351, 208 365.373, 208 363.612 C 208 359.785, 209.181 355, 210.125 355 C 210.606 355, 211 357.433, 211 360.406 C 211 366.608, 213.633 367.461, 215.719 361.934 C 217.213 357.975, 219.373 358.026, 218.500 362 C 216.732 370.050, 221.521 365.342, 226.804 353.838 C 226.971 353.474, 225.288 353.420, 223.064 353.718 C 218.220 354.368, 216 352.883, 216 348.994 C 216 346.976, 215.394 346.071, 213.750 345.630 C 210.464 344.750, 209.586 344.851, 207.538 346.349 M 598 350.682 C 594.568 357.101, 591.031 359.500, 584.998 359.500 C 581.846 359.500, 580.670 359.795, 581.646 360.341 C 589.145 364.538, 598.479 358.998, 600.332 349.250 C 601.136 345.023, 600.971 345.124, 598 350.682 M 407.662 351.335 C 403.979 365.390, 423.327 373.496, 434.750 362.684 C 439.497 358.191, 438.733 357.569, 432.669 360.991 C 422.192 366.904, 410.830 362.710, 409.049 352.272 C 408.406 348.505, 408.404 348.504, 407.662 351.335 M 831.448 351.750 C 830.595 352.712, 829.104 354.571, 828.134 355.880 C 826.384 358.243, 826.335 358.249, 821.001 356.685 C 813.953 354.619, 813.789 354.842, 816.546 362.749 C 819.361 370.821, 822 372.401, 822 366.014 C 822 361.136, 823.624 361.481, 824.578 366.562 C 825.857 373.380, 828.619 372.821, 830.007 365.465 C 831.782 356.057, 833.467 355.887, 832.623 365.201 C 831.880 373.409, 834.098 378.802, 835.559 372.338 C 837.352 364.407, 838.162 362, 839.039 362 C 840.359 362, 840.251 363.618, 838.476 370.432 C 837.637 373.651, 837.075 376.366, 837.226 376.466 C 837.377 376.566, 838.997 377.682, 840.827 378.947 C 842.657 380.211, 844.490 380.853, 844.901 380.373 C 845.312 379.893, 848.049 376.683, 850.982 373.241 C 853.915 369.799, 856.502 367.169, 856.730 367.397 C 857.376 368.043, 852.102 376.143, 848.684 379.752 C 842.821 385.942, 847.058 386.362, 853.289 380.208 C 859.688 373.889, 860.738 373.666, 857.818 379.250 C 856.596 381.587, 855.687 383.837, 855.798 384.250 C 855.909 384.663, 855.437 385.014, 854.750 385.032 C 850.587 385.138, 849.772 387.698, 852.561 391.913 C 855.793 396.797, 855.647 396.781, 862.346 393 C 865.270 391.350, 868.483 390, 869.486 390 C 872.381 390, 868.948 393.258, 862.492 396.639 C 856.468 399.793, 856.143 401.221, 861.745 399.920 C 866.758 398.756, 872 398.773, 872 399.955 C 872 400.480, 870.313 401.185, 868.250 401.522 C 858.879 403.053, 858.943 403.026, 860.016 405.030 C 860.950 406.774, 861.305 406.804, 865.135 405.452 C 867.399 404.654, 871.670 404, 874.626 404 C 880.748 404, 880.941 403.664, 877.500 399 C 874.477 394.903, 874.359 392.890, 877 390.500 C 880.951 386.924, 879.533 385.454, 869.710 382.942 C 863.776 381.425, 862.880 379.821, 863.226 371.339 L 863.500 364.635 859.164 361.693 L 854.827 358.752 851.954 360.876 C 846.503 364.906, 841.013 363.242, 840.985 357.550 C 840.954 351.488, 834.929 347.824, 831.448 351.750 M 618.186 353.055 C 615.074 354.303, 616.189 355.773, 619.841 355.237 C 621.452 355, 623.722 355.316, 624.885 355.939 C 626.618 356.866, 627 356.789, 627 355.510 C 627 352.848, 622.103 351.484, 618.186 353.055 M 478.607 354.582 C 477.610 357.181, 477.920 367, 479 367 C 479.571 367, 480 364, 480 360 C 480 352.899, 479.700 351.733, 478.607 354.582 M 204 361.941 C 204 364.173, 204.450 366, 205 366 C 205.550 366, 206 364.452, 206 362.559 C 206 360.666, 205.550 358.840, 205 358.500 C 204.396 358.127, 204 359.490, 204 361.941 M 194.882 363.705 C 196.624 368.140, 199 370.601, 199 367.969 C 199 366.289, 194.801 359, 193.833 359 C 193.393 359, 193.865 361.117, 194.882 363.705 M 463.833 366.302 C 459.674 373.331, 458.014 378.588, 458.006 384.750 C 457.998 390.482, 459.612 390.150, 460.438 384.250 C 461.491 376.731, 463.786 369.542, 466.052 366.661 C 467.200 365.201, 467.996 363.129, 467.820 362.055 C 467.586 360.626, 466.520 361.761, 463.833 366.302 M 371.101 366.974 C 366.413 369.171, 365.894 370.751, 370.426 369.028 C 375.483 367.105, 386.761 368.245, 395.250 371.536 C 399.363 373.130, 396.607 369.760, 392.282 367.906 C 385.104 364.830, 376.486 364.450, 371.101 366.974 M 846.590 368.504 C 845.052 369.930, 844.196 371.508, 844.604 372.169 C 845.342 373.363, 850 368.853, 850 366.944 C 850 365.548, 849.565 365.747, 846.590 368.504 M 502.501 370 C 504.055 376.062, 504.141 391.540, 502.647 396.341 L 501.141 401.183 503.212 399.341 C 509.965 393.336, 510.488 380.985, 504.392 371.456 C 502.506 368.508, 502.024 368.137, 502.501 370 M 215.250 370.166 C 210.752 371.173, 210.397 371.604, 212.091 374 C 212.854 375.078, 213.290 375.163, 213.643 374.300 C 214.315 372.656, 218.299 374.246, 223.707 378.316 C 229.004 382.302, 229.068 383.059, 223.999 381.772 C 221.015 381.014, 219.617 381.073, 218.499 382.001 C 216.200 383.909, 216.688 384.549, 220.313 384.379 C 224.712 384.172, 231.659 387.145, 228.192 387.751 C 225.099 388.292, 225.917 390.222, 229.649 391.189 C 234.829 392.531, 236.766 395.535, 233.541 397.224 C 227.402 400.441, 218.865 410.339, 211.094 423.250 C 207.609 429.041, 209.264 427.683, 213.532 421.250 C 222.065 408.390, 234.575 399.032, 243.266 399.010 L 247.032 399 237.256 387.250 C 231.879 380.788, 226.441 374.038, 225.172 372.250 C 222.730 368.812, 221.991 368.656, 215.250 370.166 M 436.173 371.741 C 431.353 374.866, 427.964 380.857, 428.070 386.066 C 428.137 389.378, 428.193 389.326, 429.647 384.590 C 430.752 380.989, 432.636 378.255, 436.711 374.340 C 442.837 368.454, 442.648 367.543, 436.173 371.741 M 339 372.525 C 339 374.314, 343.313 376.201, 345.491 375.365 C 347.551 374.575, 347.385 373.276, 345.066 372.035 C 342.205 370.504, 339 370.763, 339 372.525 M 438.776 373.750 C 436.752 376.058, 433.991 381.563, 434.035 383.200 C 434.055 383.915, 434.644 383.467, 435.345 382.205 C 436.045 380.943, 438.054 379.037, 439.809 377.970 C 441.699 376.821, 443 375.208, 443 374.015 C 443 371.535, 440.837 371.399, 438.776 373.750 M 804.170 387.364 C 796.394 395.139, 789.767 401.796, 789.442 402.157 C 789.118 402.519, 791.315 403.531, 794.326 404.406 C 800.576 406.223, 806.744 411.790, 812.834 421.111 C 814.850 424.197, 817.069 427.572, 817.765 428.611 C 818.460 429.650, 817.414 427.255, 815.439 423.289 C 813.465 419.323, 811.975 415.948, 812.129 415.789 C 812.408 415.501, 811.461 414.437, 803.062 405.611 C 798.324 400.633, 798.556 398.135, 803.793 397.741 C 804.959 397.653, 805.708 397.374, 805.455 397.122 C 804.866 396.533, 808.037 393, 809.155 393 C 809.620 393, 810 394.387, 810 396.083 C 810 398.110, 810.428 399.021, 811.250 398.741 C 812.016 398.481, 812.512 396.417, 812.531 393.408 C 812.567 387.869, 813.431 385.844, 815.431 386.612 C 816.183 386.900, 817.092 386.661, 817.451 386.080 C 817.865 385.410, 817.444 385.264, 816.302 385.681 C 814.616 386.297, 814.621 386.201, 816.382 384.195 C 819.069 381.133, 821.527 380.644, 824.486 382.583 C 825.903 383.511, 827.327 384.006, 827.650 383.683 C 827.974 383.360, 828.913 383.770, 829.738 384.595 C 830.563 385.420, 831.474 385.860, 831.762 385.572 C 832.718 384.616, 829.553 381.707, 825.655 379.959 C 823.540 379.011, 822.237 377.972, 822.759 377.649 C 823.873 376.960, 832.717 382.370, 835.250 385.289 C 836.212 386.398, 837 386.844, 837 386.280 C 837 385.024, 829.148 377.685, 826.005 376.003 C 819.057 372.284, 819.458 372.075, 804.170 387.364 M 510.738 376.500 C 511.157 378.150, 511.500 382.988, 511.500 387.251 C 511.500 396.048, 511.571 396.208, 513.509 391.750 C 514.818 388.738, 514.925 388.682, 514.961 390.984 C 514.989 392.782, 513.182 395.166, 508.419 399.611 L 501.838 405.754 502.897 409.589 C 503.479 411.698, 503.683 415.129, 503.350 417.212 C 501.906 426.240, 504.933 419.233, 507.005 408.750 C 508.056 403.433, 509.958 400.723, 509.813 404.750 C 509.724 407.198, 512.806 418.206, 513.880 419.280 C 514.368 419.768, 514.270 418.307, 513.664 416.035 C 512.762 412.656, 512.894 410.681, 514.388 405.201 C 518.660 389.539, 518.251 383.298, 512.509 376.500 L 509.976 373.500 510.738 376.500 M 550 377 C 547.867 377.683, 548.117 377.815, 551.703 377.900 C 557.522 378.038, 560.221 379.504, 563.032 384.052 C 564.929 387.121, 565.624 387.636, 566.284 386.457 C 566.745 385.633, 567.563 385.230, 568.102 385.563 C 569.416 386.375, 568.172 381.157, 566.358 378.250 C 564.859 375.848, 555.767 375.153, 550 377 M 569.483 380.967 C 570.327 382.598, 571.111 385.073, 571.227 386.467 C 571.485 389.584, 571.809 389.636, 572.969 386.750 C 573.716 384.892, 573.887 385.284, 573.952 389 C 574.050 394.631, 575.961 392.473, 575.985 386.705 C 576.001 382.648, 572.549 378, 569.520 378 C 568.100 378, 568.096 378.286, 569.483 380.967 M 370.221 380.470 C 367.868 381.205, 363.949 383.440, 361.511 385.437 C 352.701 392.656, 345.169 393.681, 341.090 388.216 L 339.063 385.500 339.032 388.827 C 338.946 397.792, 349.684 400.917, 358.637 394.532 C 376.107 382.074, 378.966 380.966, 383.069 385.069 C 385.028 387.028, 385.050 387.274, 383.490 389.656 C 381.324 392.961, 382.228 393.745, 384.899 390.878 C 391.779 383.493, 382.227 376.721, 370.221 380.470 M 418 380.738 C 411.848 381.473, 408.095 387.405, 409.926 393.500 C 410.693 396.052, 410.841 396.157, 410.914 394.200 C 410.992 392.111, 413.580 386, 414.387 386 C 414.572 386, 414.550 387.238, 414.340 388.750 C 414.018 391.061, 414.101 391.181, 414.861 389.500 C 416.070 386.823, 418.903 384.367, 422.252 383.094 C 423.763 382.520, 425 381.588, 425 381.025 C 425 379.994, 424.424 379.971, 418 380.738 M 551.443 380.989 C 558.279 382.305, 562.034 389.332, 558.965 395.066 C 558.287 396.332, 558.275 397, 558.930 397 C 561.618 397, 563.013 388.761, 560.970 384.945 C 559.535 382.264, 554.723 379.978, 550.800 380.115 C 547.529 380.229, 547.534 380.237, 551.443 380.989 M 474.744 381.665 C 472.999 384.352, 472.826 394.765, 474.388 403.078 C 475.275 407.796, 476 413.158, 476 414.995 C 476 416.831, 476.282 418.052, 476.626 417.707 C 477.418 416.916, 477.169 399.036, 476.221 388.500 C 475.824 384.100, 475.160 381.024, 474.744 381.665 M 362.097 387.507 C 354.651 392.989, 348.416 394.957, 344.315 393.119 C 341.599 391.902, 341.563 391.922, 343.286 393.679 C 347.046 397.513, 352.634 396.178, 361.829 389.250 C 366.391 385.813, 369.695 383, 369.172 383 C 368.648 383, 365.465 385.028, 362.097 387.507 M 420.388 386.531 C 418.119 389.994, 418.928 390.091, 422.376 386.770 C 424.464 384.758, 424.813 384, 423.649 384 C 422.767 384, 421.300 385.139, 420.388 386.531 M 453.402 386.250 C 452.999 387.488, 452.181 391.390, 451.584 394.923 C 450.401 401.933, 448.172 404.550, 448.736 398.267 L 449.074 394.500 447.425 397.500 C 446.518 399.150, 444.499 402.529, 442.938 405.009 C 441.377 407.489, 439.846 411.539, 439.536 414.009 C 438.973 418.481, 438.980 418.474, 441.058 412.500 C 442.207 409.200, 444.050 405.600, 445.154 404.500 C 447.121 402.540, 447.119 402.581, 445.090 406.538 C 442.556 411.479, 440.930 419.638, 441.937 422.360 C 442.471 423.802, 442.848 422.760, 443.269 418.680 C 443.982 411.778, 447.407 405.228, 451.724 402.512 C 454.895 400.518, 454.923 400.428, 454.961 392.250 C 455.001 383.717, 454.658 382.395, 453.402 386.250 M 436.179 388.250 C 435.199 391.878, 435.621 393.213, 437.039 390.971 C 437.999 389.453, 438.364 385, 437.529 385 C 437.269 385, 436.662 386.462, 436.179 388.250 M 860.060 386.395 C 856.392 387.720, 854.752 390, 857.466 390 C 859.705 390, 865 387.171, 865 385.974 C 865 384.774, 864.407 384.824, 860.060 386.395 M 445.684 389.352 C 445.237 391.471, 445.125 393.458, 445.436 393.769 C 446.567 394.900, 447.125 393.112, 446.815 389.350 L 446.498 385.500 445.684 389.352 M 440.176 394.543 C 435.272 405.949, 434.865 410.184, 439.443 402.181 C 442.463 396.901, 445.335 387, 443.846 387 C 443.612 387, 441.960 390.395, 440.176 394.543 M 535.496 397.252 C 534.523 399.648, 536.207 408.238, 537.750 408.751 C 539.336 409.278, 539.280 406.862, 537.559 400.500 C 536.564 396.821, 536.019 395.963, 535.496 397.252 M 527.667 397.667 C 525.141 400.193, 527.371 408.623, 531.072 410.537 C 535.265 412.705, 535.692 412.332, 532.650 409.156 C 529.840 406.224, 527.432 399.728, 528.508 397.987 C 529.201 396.866, 528.670 396.664, 527.667 397.667 M 189.482 399.660 C 188.667 400.476, 188 401.593, 188 402.143 C 188 402.693, 188.707 402.436, 189.571 401.571 C 191.367 399.776, 191.955 399.685, 193.885 400.908 C 194.979 401.601, 195.042 402.439, 194.187 404.893 C 193.048 408.161, 194.234 409.191, 195.838 406.326 C 198.200 402.104, 192.753 396.390, 189.482 399.660 M 433 398.311 C 433 398.665, 431.888 401.908, 430.529 405.518 C 429.171 409.128, 428.430 411.852, 428.884 411.572 C 430.081 410.832, 434.276 398.942, 433.584 398.251 C 433.263 397.929, 433 397.956, 433 398.311 M 426.437 403.130 C 424.822 404.852, 421.587 407.123, 419.250 408.177 C 414.369 410.378, 413.545 413.015, 417.750 412.972 C 420.609 412.943, 423.391 410.545, 428.447 403.750 C 431.831 399.202, 430.507 398.793, 426.437 403.130 M 461 401.953 C 461 404.360, 463.041 409, 464.100 409 C 464.528 409, 464.189 406.975, 463.345 404.500 C 461.686 399.631, 461 398.886, 461 401.953 M 239.299 404.106 C 235.730 405.138, 233.965 407, 236.556 407 C 238.155 407, 248.286 412.047, 247.754 412.579 C 247.614 412.720, 245.363 412.436, 242.753 411.948 C 239.952 411.425, 237.084 411.433, 235.754 411.967 C 233.216 412.987, 233.203 412.978, 238 413.559 C 243.707 414.249, 249.992 416.994, 250.079 418.833 C 250.127 419.848, 250.353 420.017, 250.657 419.265 C 251.399 417.431, 255.637 419.938, 260.643 425.170 C 265.790 430.551, 266.509 432.845, 264.531 437.580 C 262.519 442.394, 262.238 442.337, 271.519 439.017 C 282.088 435.238, 281.745 434.349, 264.317 420.379 C 259.267 416.331, 253.234 410.764, 250.911 408.009 C 246.513 402.793, 245.276 402.378, 239.299 404.106 M 520.004 403.750 C 520.031 409.165, 534.870 419.939, 536.188 415.500 C 536.536 414.328, 526.944 408.917, 525.787 409.632 C 525.355 409.899, 524.057 408.516, 522.902 406.559 C 520.845 403.073, 519.996 402.250, 520.004 403.750 M 566.625 405.072 C 569.850 408.756, 570.993 411.488, 571.068 415.684 C 571.129 419.168, 571.230 419.304, 572.224 417.243 C 573.900 413.767, 571.651 407.585, 567.725 404.873 L 564.500 402.645 566.625 405.072 M 451.627 407.031 C 448.479 410.772, 446.974 415.950, 447.130 422.500 L 447.250 427.500 447.990 422.461 C 448.735 417.391, 450.684 412.755, 454.134 407.846 C 457.548 402.988, 455.570 402.345, 451.627 407.031 M 782.111 413.141 C 778.597 416.480, 771.397 422.022, 766.111 425.456 C 755.062 432.636, 752.076 435.476, 753.781 437.181 C 754.627 438.027, 755.332 437.969, 756.552 436.957 C 758.410 435.415, 761.353 438.341, 762.498 442.868 C 763.422 446.521, 762.397 446.555, 758.358 443.009 C 753.772 438.983, 745.751 439.198, 738.335 443.544 C 733.536 446.356, 733.062 447.427, 735.934 448.965 C 738.579 450.380, 740 450.263, 740 448.629 C 740 446.857, 751.566 445.395, 753.419 446.933 C 754.115 447.510, 754.967 447.699, 755.313 447.353 C 755.659 447.007, 757.993 447.298, 760.500 448 C 763.007 448.702, 765.246 449.088, 765.476 448.858 C 767.279 447.054, 766.751 438.175, 764.518 432.773 C 763.985 431.484, 764.525 430.729, 766.652 429.794 C 768.218 429.105, 769.725 428.273, 770 427.945 C 770.675 427.141, 775.170 424.731, 783 420.974 C 793.160 416.099, 794.730 413.915, 791.443 409.223 C 789.351 406.236, 789.399 406.216, 782.111 413.141 M 458.015 414.180 C 455.209 421.874, 454.542 426.768, 455.856 430 C 456.700 432.074, 456.899 431.306, 457.027 425.500 C 457.166 419.138, 457.268 418.819, 458.138 422 C 461.772 435.279, 462.150 436.250, 463.261 435.139 C 464.098 434.302, 463.919 432.200, 462.567 426.989 C 461.236 421.858, 460.928 418.354, 461.422 413.983 C 462.300 406.229, 460.884 406.310, 458.015 414.180 M 515.774 408.556 C 514.919 409.940, 516.441 416.574, 518.153 418.926 C 518.894 419.943, 520.827 422.448, 522.449 424.493 C 524.855 427.526, 525.408 429.191, 525.449 433.535 C 525.494 438.255, 525.638 438.612, 526.715 436.680 C 529.959 430.857, 527.739 422.977, 521.348 417.626 C 519.459 416.045, 517.841 413.487, 517.311 411.245 C 516.824 409.186, 516.132 407.977, 515.774 408.556 M 495.172 413.229 C 493.548 415.578, 489.897 419.690, 487.059 422.366 C 480.712 428.352, 481.094 428.967, 488.965 425.435 C 496.334 422.128, 500 418.157, 500 413.482 C 500 408.511, 498.488 408.432, 495.172 413.229 M 840.667 411.065 C 838.937 413.535, 839.566 416.697, 842.052 418.028 C 844.504 419.340, 846.964 418.226, 848.077 415.298 C 850.081 410.026, 843.877 406.482, 840.667 411.065 M 842.200 411.200 C 840.578 412.822, 840.687 415.495, 842.433 416.944 C 844.668 418.799, 848.438 414.687, 846.988 411.977 C 845.787 409.734, 843.962 409.438, 842.200 411.200 M 547.568 416.132 C 548.731 418.381, 549.009 420.564, 548.553 423.882 C 547.709 430.016, 549.513 427.440, 551.153 420.169 C 552.438 414.467, 551.759 413.050, 547.724 413.015 C 546.057 413.001, 546.047 413.190, 547.568 416.132 M 429.250 415.660 C 425.172 417.349, 425.024 418.140, 429 417 C 433.456 415.722, 432.934 418.459, 428.250 420.932 C 423.838 423.261, 424.580 423.620, 429.532 421.551 C 434.530 419.463, 434.268 422.132, 429.143 425.524 C 425.502 427.933, 422.285 432.618, 423.463 433.796 C 423.758 434.091, 424 433.817, 424 433.186 C 424 432.555, 426.250 430.359, 429 428.306 C 436.288 422.865, 436.490 412.661, 429.250 415.660 M 199.976 417.046 C 198.960 418.944, 199.034 418.998, 201.001 417.796 C 203.612 416.200, 206.371 419.093, 205.439 422.448 C 204.981 424.098, 205.075 424.206, 205.919 423 C 206.497 422.175, 206.976 420.577, 206.985 419.450 C 207.017 415.106, 201.945 413.366, 199.976 417.046 M 465.070 421.083 C 465.109 423.512, 465.516 426.400, 465.975 427.500 C 466.479 428.708, 466.595 427.123, 466.267 423.500 C 465.613 416.275, 464.973 414.983, 465.070 421.083 M 533.260 422.138 C 535.757 425.516, 535.242 432.535, 532.010 439.182 C 530.514 442.258, 530.387 442.925, 531.569 441.500 C 536.216 435.897, 538.278 429.125, 536.751 424.487 C 535.448 420.529, 535.463 420.050, 536.902 419.707 C 537.781 419.497, 536.864 419.340, 534.864 419.358 L 531.228 419.390 533.260 422.138 M 530.080 422 C 530.127 424.725, 532.870 432.027, 532.897 429.500 C 532.915 427.850, 532.286 425.375, 531.500 424 C 530.714 422.625, 530.075 421.725, 530.080 422 M 542.593 429.500 C 542.942 433.900, 543.863 438.512, 544.637 439.750 C 546.009 441.941, 550 442.926, 550 441.073 C 550 440.564, 550.788 439.941, 551.750 439.689 C 552.712 439.438, 552.053 439.180, 550.285 439.116 C 546.436 438.977, 545.488 437.460, 544.584 429.991 C 543.471 420.805, 541.870 420.410, 542.593 429.500 M 246.172 428.076 C 245.527 430.868, 245.024 435.031, 245.054 437.326 L 245.108 441.500 247.039 435.500 C 249.043 429.276, 249.611 423, 248.172 423 C 247.716 423, 246.816 425.284, 246.172 428.076 M 495.048 427.430 C 491.638 432.387, 490.948 434.864, 494.054 431 C 496.393 428.090, 499.269 423, 498.574 423 C 498.311 423, 496.724 424.994, 495.048 427.430 M 515 426.860 C 515 429.997, 511.531 435.698, 507.244 439.609 L 504.500 442.113 507 441.448 C 513.105 439.824, 519.096 431.029, 517.507 426.022 C 516.561 423.042, 515 423.564, 515 426.860 M 420.594 428.216 C 419.734 429.529, 418.777 432.156, 418.469 434.052 L 417.908 437.500 419.340 433.741 C 420.127 431.673, 421.337 429.299, 422.028 428.466 C 422.719 427.633, 423.032 426.698, 422.722 426.389 C 422.413 426.080, 421.455 426.902, 420.594 428.216 M 826.954 429.086 C 825.382 432.024, 826.598 432.718, 828.725 430.096 C 831.055 427.225, 834.682 429.275, 833.555 432.826 C 832.790 435.236, 830.155 435.674, 827.998 433.750 C 826.801 432.682, 826.795 432.762, 827.961 434.298 C 829.878 436.826, 833.270 436.042, 834.402 432.810 C 836.172 427.754, 829.462 424.399, 826.954 429.086 M 474.015 432.691 C 474.027 435.519, 474.280 436.113, 475 435 C 476.264 433.044, 476.264 430.281, 475 429.500 C 474.399 429.129, 474.006 430.403, 474.015 432.691 M 554.755 430.846 C 550.873 432.560, 549.703 435.565, 552.500 436.638 C 554.789 437.517, 554.289 441.380, 551.555 443.948 C 548.857 446.483, 545.023 446.217, 541.750 443.267 C 540.710 442.329, 540 442.149, 540 442.822 C 540 444.842, 544.854 447.248, 547.998 446.787 C 551.401 446.288, 551.955 447.418, 549.066 448.965 C 546.087 450.559, 544.423 450.227, 541.016 447.360 C 538.821 445.513, 537.564 445.036, 536.827 445.773 C 535.222 447.378, 536.600 448.769, 542.997 451.998 L 548.848 454.952 552.324 451.476 C 554.236 449.564, 556.723 448, 557.850 448 C 560.917 448, 561.533 445.977, 561.174 437.081 C 560.817 428.250, 560.760 428.194, 554.755 430.846 M 483.843 437.250 C 478.559 442.976, 475.301 449.854, 476.519 452.712 C 477.141 454.174, 477.411 453.922, 477.997 451.332 C 478.753 447.991, 483.366 439.510, 484.965 438.521 C 486.395 437.638, 490.239 432, 489.412 432 C 489.014 432, 486.508 434.363, 483.843 437.250 M 469.357 436.512 C 469.038 437.344, 469.219 440.606, 469.760 443.762 L 470.743 449.500 470.872 442.250 C 470.997 435.185, 470.536 433.440, 469.357 436.512 M 496.202 438.642 C 490.102 442.912, 489.441 444.664, 494.750 442.493 C 498.380 441.008, 502 437.711, 502 435.889 C 502 434.604, 501.909 434.647, 496.202 438.642 M 434.100 437.782 C 433.994 440.197, 436.491 447, 437.484 447 C 437.807 447, 437.603 446.127, 437.032 445.060 C 436.461 443.993, 435.590 441.405, 435.097 439.310 C 434.523 436.870, 434.165 436.321, 434.100 437.782 M 487.593 441.108 C 485.067 443.918, 483 446.708, 483 447.308 C 483 447.984, 483.318 448.038, 483.834 447.450 C 484.293 446.928, 486.830 444.137, 489.471 441.250 C 492.113 438.363, 493.804 436, 493.230 436 C 492.655 436, 490.119 438.299, 487.593 441.108 M 448.030 438.849 C 447.972 441.456, 451.276 447.060, 454.028 449.020 C 459.063 452.605, 459.508 451.086, 454.840 446.250 C 452.318 443.637, 449.761 440.600, 449.158 439.500 C 448.539 438.373, 448.048 438.089, 448.030 438.849 M 439.039 440.327 C 438.994 442.439, 444.209 448.019, 446.173 447.960 C 446.903 447.938, 446.227 447.230, 444.671 446.387 C 443.115 445.543, 441.220 443.424, 440.460 441.677 C 439.581 439.656, 439.064 439.165, 439.039 440.327 M 275.618 441.112 C 267.991 442.903, 253.558 452, 258.345 452 C 259.255 452, 260 451.634, 260 451.187 C 260 449.811, 274.299 444.694, 277.787 444.822 C 281.686 444.964, 285.921 446.918, 282.441 446.970 C 281.309 446.986, 279.509 447.641, 278.441 448.424 C 277.040 449.452, 278.587 449.282, 284 447.811 C 292.702 445.448, 292.211 445.713, 291.469 443.779 C 290.149 440.339, 283.603 439.238, 275.618 441.112 M 513.245 449.250 C 512.695 449.938, 511.936 451.625, 511.560 453 L 510.875 455.500 512.915 453 C 514.719 450.790, 515.672 448, 514.622 448 C 514.415 448, 513.795 448.563, 513.245 449.250 M 283.731 451.970 C 276.229 455.207, 271 458.582, 271 460.185 C 271 461.365, 271.290 461.288, 282.822 457.055 C 291.768 453.771, 295.583 453.177, 294.412 455.250 C 293.848 456.250, 293.976 456.250, 295.053 455.250 C 295.794 454.563, 297.547 453.993, 298.950 453.985 C 306.670 453.938, 303.774 449.824, 295.689 449.351 C 291.700 449.118, 288.935 449.723, 283.731 451.970 M 729.980 452.524 C 728.450 454.367, 728.915 454.936, 732.482 455.583 C 736.291 456.273, 745.747 461.195, 750.404 464.911 C 756.653 469.898, 756.058 467.331, 749.559 461.271 C 741 453.290, 732.497 449.491, 729.980 452.524 M 489.697 454.016 C 486.414 456.608, 486.804 457.951, 490.158 455.602 C 493.292 453.407, 499.617 453.494, 500.883 455.750 C 501.815 457.409, 501.901 457.407, 502.556 455.707 C 504.066 451.789, 494.167 450.487, 489.697 454.016 M 531.459 453.067 C 531.096 453.653, 530.957 454.242, 531.150 454.374 C 531.422 454.562, 541.434 458.860, 546.196 460.833 C 546.638 461.017, 547 460.497, 547 459.678 C 547 457.058, 532.741 450.993, 531.459 453.067 M 442.500 453.910 L 439.500 454.583 442 455.914 C 443.375 456.646, 445.640 458.305, 447.034 459.602 L 449.567 461.959 451.479 458.409 C 454.205 453.348, 451.359 451.922, 442.500 453.910 M 717.200 455.200 C 715.280 457.120, 715.582 457.393, 724.155 461.513 C 729.041 463.860, 734.278 467.349, 737.221 470.216 C 742.938 475.784, 743.965 476.213, 741.228 471.891 C 734.415 461.131, 720.757 451.643, 717.200 455.200 M 470.027 456.649 C 471.387 457.556, 474.243 459.919, 476.372 461.899 C 479.075 464.413, 479.908 464.844, 479.129 463.328 C 477.695 460.537, 470.994 455, 469.050 455 C 468.119 455, 468.487 455.622, 470.027 456.649 M 295.237 460.001 C 283.125 466.064, 281.973 470.544, 294 464.811 C 297.377 463.202, 300.846 462.586, 307.905 462.345 C 313.077 462.169, 317.522 461.812, 317.781 461.552 C 318.041 461.292, 319.434 461.676, 320.877 462.404 C 323.408 463.682, 335 462.550, 335 461.025 C 335 459.201, 320.485 456, 312.212 456 C 303.733 456, 302.785 456.223, 295.237 460.001 M 493.370 457.440 C 488.831 459.416, 488.217 461.220, 492.713 459.372 C 496.626 457.763, 499.177 455.968, 497.450 456.039 C 496.928 456.061, 495.092 456.691, 493.370 457.440 M 528.500 459.090 C 530.700 460.292, 532.725 461.602, 533 462.003 C 533.275 462.403, 534.510 463.046, 535.744 463.431 C 536.978 463.816, 538.561 464.664, 539.262 465.316 C 539.962 465.967, 542.665 467.616, 545.268 468.979 C 547.870 470.343, 550 471.805, 550 472.229 C 550 473.213, 555.124 473.209, 556.672 472.224 C 557.997 471.381, 532.293 458.386, 527.500 457.475 C 524.723 456.948, 524.798 457.068, 528.500 459.090 M 428.217 460.561 C 426.195 461.977, 423 466.892, 423 468.585 C 423 468.962, 423.888 468.141, 424.973 466.762 C 427.711 463.281, 432.858 461.040, 436.500 461.743 C 439.206 462.266, 439.366 462.160, 438.128 460.661 C 436.398 458.567, 431.139 458.514, 428.217 460.561 M 697.500 462.237 C 693.650 463.960, 690.288 465.535, 690.029 465.739 C 689.085 466.480, 692.542 467.964, 693.978 467.433 C 701.969 464.483, 719.169 467.659, 718.225 471.911 C 718.074 472.592, 718.419 472.859, 718.992 472.505 C 719.564 472.151, 721.633 473.510, 723.589 475.524 C 729.956 482.081, 728.360 475.905, 721.731 468.338 C 713.461 458.897, 708.026 457.528, 697.500 462.237 M 459.250 462.662 C 458.563 462.940, 458 463.795, 458 464.562 C 458 465.687, 458.484 465.737, 460.500 464.818 C 464.425 463.030, 463.271 461.040, 459.250 462.662 M 329.500 465.865 C 317.428 469.936, 315.595 472.106, 324.750 471.490 C 330.981 471.070, 332.030 470.786, 333.925 469 C 334.801 468.175, 336.864 466.502, 338.509 465.282 C 342.661 462.202, 339.815 462.386, 329.500 465.865 M 341.116 467.490 C 338.840 469.959, 336.645 471.872, 336.239 471.740 C 335.832 471.608, 335.355 472.519, 335.179 473.765 C 334.991 475.087, 334.406 475.751, 333.774 475.360 C 333.129 474.961, 332.979 475.157, 333.405 475.845 C 333.797 476.480, 334.766 477, 335.559 477 C 336.666 477, 337 478.509, 337 483.513 C 337 490.227, 339.572 501.337, 342.385 506.778 C 344.743 511.338, 346.144 511.661, 344.607 507.290 C 339.534 492.866, 339.312 479.584, 344.034 472.953 C 345.839 470.418, 347.220 469.626, 354.500 466.951 L 357.500 465.849 355 464.460 C 349.917 461.636, 345.655 462.566, 341.116 467.490 M 474.652 466.428 C 477.481 469.833, 479 470.782, 479 469.146 C 479 467.833, 474.242 463, 472.949 463 C 472.319 463, 473.085 464.543, 474.652 466.428 M 400.769 467.101 C 397.749 469.355, 390.526 470.070, 368 470.347 C 355.890 470.495, 349.178 471.862, 350.450 473.919 C 352.337 476.973, 373.939 481.460, 379.500 479.953 C 380.764 479.611, 384.305 481.065, 385.108 482.257 C 385.443 482.753, 386.879 481.175, 388.301 478.750 C 394.180 468.718, 396.512 470.006, 391.519 480.527 C 387.047 489.952, 387.527 494.230, 392.157 486.210 C 396.611 478.496, 404.335 470.488, 409.252 468.487 C 412.950 466.982, 413.241 466.653, 411.500 465.949 C 407.988 464.529, 403.582 465.002, 400.769 467.101 M 432.610 467.527 C 434.321 468.278, 437.021 469.183, 438.610 469.538 L 441.500 470.185 438.226 468.092 C 436.425 466.942, 433.725 466.037, 432.226 466.082 L 429.500 466.163 432.610 467.527 M 663.217 470.270 C 655.360 474.282, 655.103 474.517, 658.217 474.821 C 663.056 475.295, 663.238 475.950, 660.649 483.556 C 656.286 496.374, 650.634 506.254, 640.309 519.111 C 634.270 526.630, 634.317 526.523, 636.979 526.723 C 638.067 526.805, 638.855 526.339, 638.729 525.686 C 638.603 525.034, 639.016 524.597, 639.647 524.716 C 640.327 524.844, 640.585 524.131, 640.281 522.966 C 639.889 521.469, 640.271 521, 641.883 521 C 643.333 521, 644 520.370, 644 519 C 644 517.900, 644.450 517, 645 517 C 645.550 517, 646 516.434, 646 515.743 C 646 515.052, 647.462 513.108, 649.250 511.424 C 651.038 509.740, 652.648 507.718, 652.829 506.931 C 653.010 506.144, 653.746 504.825, 654.465 504 C 655.184 503.175, 658.787 496.336, 662.472 488.801 C 671.759 469.811, 673.601 468.953, 688.906 476.490 C 702.914 483.389, 704.255 482.985, 694.442 474.824 C 682.615 464.989, 675.572 463.961, 663.217 470.270 M 577.211 471.017 C 573.202 472.645, 566.227 474.902, 561.711 476.031 C 554.724 477.779, 531.569 488.275, 528.628 491.028 C 526.866 492.677, 534.790 490.207, 542.658 486.654 C 547.109 484.645, 551.722 483, 552.908 483 C 554.094 483, 556.673 482.328, 558.638 481.507 C 560.604 480.685, 562.626 480.269, 563.131 480.581 C 564.580 481.477, 578.144 478.089, 581.876 475.899 C 586.196 473.365, 586.649 473.931, 584.517 479.209 C 580.291 489.673, 578.802 498.141, 580.953 499.471 C 581.478 499.795, 582.380 498.134, 582.958 495.780 C 584.358 490.084, 587.755 483.483, 591.743 478.709 C 595.824 473.825, 595.854 474.042, 590.643 470.750 C 585.361 467.413, 586.120 467.398, 577.211 471.017 M 411.500 470.137 C 409.416 471.259, 406.376 474.483, 402.799 479.366 C 400.742 482.173, 400.740 482.210, 402.718 481.151 C 403.828 480.557, 405.021 480.355, 405.369 480.702 C 405.716 481.049, 406 480.782, 406 480.108 C 406 479.434, 406.450 479.160, 407 479.500 C 407.550 479.840, 408 479.432, 408 478.594 C 408 476.665, 411.635 474.671, 414.016 475.294 C 415.962 475.803, 417.305 472.958, 416.325 470.404 C 415.687 468.743, 414.240 468.663, 411.500 470.137 M 457.500 471 C 457.123 471.610, 458.645 472, 461.406 472 C 465.041 472, 466.626 472.610, 469.465 475.104 C 473.079 478.277, 473.747 478.264, 472.029 475.055 C 470.197 471.631, 459.035 468.516, 457.500 471 M 422.920 475.806 C 424.256 478.351, 426.249 479.444, 428.217 478.711 C 429.063 478.396, 428.818 477.971, 427.500 477.464 C 426.400 477.042, 424.647 475.977, 423.604 475.098 C 421.800 473.576, 421.767 473.610, 422.920 475.806 M 433.242 477.383 C 434.201 478.342, 435.407 478.866, 435.923 478.547 C 436.439 478.228, 437.144 478.425, 437.490 478.984 C 438.370 480.408, 444.273 480.252, 446.327 478.750 C 447.770 477.695, 447.138 477.488, 442.268 477.426 C 439.096 477.385, 435.375 476.966, 434 476.495 C 431.623 475.680, 431.585 475.724, 433.242 477.383 M 597.359 478.250 C 591.798 484.539, 590.111 490.223, 595.298 485.196 C 599.545 481.079, 605.356 480.747, 609.292 484.395 C 610.714 485.712, 612.047 486.620, 612.255 486.412 C 612.463 486.204, 615.753 486.414, 619.567 486.880 C 623.380 487.345, 626.737 487.362, 627.026 486.917 C 627.315 486.472, 629.002 485.852, 630.776 485.540 C 634.928 484.808, 635.145 487.088, 631.250 490.516 C 629.047 492.455, 628.848 492.943, 630.250 492.968 C 632.608 493.011, 632.457 495.132, 629.899 497.878 C 628.744 499.118, 628.107 500.440, 628.485 500.816 C 628.862 501.192, 630.289 500.150, 631.657 498.500 C 633.025 496.850, 635.641 493.813, 637.470 491.750 C 640.932 487.847, 639.981 486.506, 636.230 490 C 633.531 492.514, 632.631 492.557, 633.942 490.108 C 635.286 487.597, 643.722 482.710, 645.169 483.604 C 645.922 484.070, 646.032 483.860, 645.490 482.985 C 644.891 482.015, 645.132 481.836, 646.388 482.319 C 647.407 482.710, 647.856 482.576, 647.493 481.989 C 647.141 481.419, 648.180 481, 649.941 481 C 651.993 481, 653 480.506, 653 479.500 C 653 477.802, 651.434 477.489, 650.500 479 C 649.626 480.415, 648 480.242, 648 478.734 C 648 477.447, 643.811 477.590, 625.500 479.505 C 619.776 480.104, 617.204 479.851, 611.392 478.119 C 602.376 475.431, 599.831 475.455, 597.359 478.250 M 463 479.744 C 463 480.336, 461.253 483.030, 459.118 485.731 C 452.561 494.027, 451.667 496.493, 451.317 507.266 C 451.034 515.944, 450.665 517.623, 448.005 522.337 C 446.265 525.420, 444.805 529.708, 444.521 532.571 L 444.031 537.500 445.005 533.500 C 447.217 524.423, 453 515.113, 453 520.629 C 453 522.344, 458.956 531.378, 459.637 530.696 C 459.881 530.452, 458.893 526.813, 457.442 522.609 C 453.277 510.550, 454.025 500.162, 459.890 488.600 C 462.304 483.840, 463.991 479.658, 463.640 479.306 C 463.288 478.955, 463 479.151, 463 479.744 M 446.029 485.469 C 444.753 486.827, 443.394 487.743, 443.008 487.505 C 442.115 486.953, 437.111 492.142, 435.599 495.186 C 434.968 496.459, 432.212 498.770, 429.475 500.323 C 424.675 503.047, 424.621 503.126, 427.948 502.559 C 433.036 501.691, 435.444 499.716, 439.011 493.481 C 440.773 490.401, 442.437 488.104, 442.709 488.376 C 442.981 488.648, 442.483 489.900, 441.602 491.158 C 440.721 492.416, 440 493.895, 440 494.445 C 440 494.995, 440.742 494.332, 441.649 492.973 C 442.556 491.613, 444.898 488.813, 446.852 486.750 C 448.807 484.688, 449.943 483, 449.377 483 C 448.812 483, 447.305 484.111, 446.029 485.469 M 475.046 486.782 C 474.976 490.267, 477.425 495.221, 480.591 498 C 482.158 499.375, 482.896 499.785, 482.231 498.912 C 481.567 498.038, 479.689 494.438, 478.058 490.912 C 476.102 486.685, 475.076 485.278, 475.046 486.782 M 604 485.784 C 604 487.957, 613.474 493.860, 614.813 492.521 C 615.555 491.778, 614.386 490.834, 608.750 487.622 C 606.138 486.134, 604 485.306, 604 485.784 M 462.111 492.012 C 459.993 494.647, 459.119 496.519, 459.723 497.123 C 460.327 497.727, 461.687 496.616, 463.438 494.089 C 467.262 488.572, 466.204 486.918, 462.111 492.012 M 464.215 499.250 C 461.860 505.658, 460.485 512.433, 462.092 509.705 C 463.993 506.478, 467.903 494, 467.012 494 C 466.535 494, 465.276 496.363, 464.215 499.250 M 614.698 498.699 C 609.081 504.646, 605.990 508.555, 606.033 509.658 C 606.052 510.121, 606.993 509.375, 608.126 508 C 609.259 506.625, 612.449 503.118, 615.215 500.206 C 617.981 497.294, 620.017 494.684, 619.739 494.405 C 619.460 494.127, 617.192 496.059, 614.698 498.699 M 459.098 503.149 C 458.494 504.881, 458.068 509.719, 458.151 513.899 L 458.301 521.500 459.025 512.500 C 459.423 507.550, 460.078 502.712, 460.481 501.750 C 460.884 500.788, 460.985 500, 460.705 500 C 460.425 500, 459.702 501.417, 459.098 503.149 M 478.241 503.597 C 479.563 508.566, 478.794 511.220, 476.288 510.336 C 474.873 509.837, 474.747 509.973, 475.683 510.986 C 479.183 514.774, 481.866 505.925, 478.576 501.441 C 477.312 499.719, 477.274 499.963, 478.241 503.597 M 416.190 506.967 C 412.741 509.131, 409.938 514.297, 410.086 518.218 C 410.167 520.372, 410.216 520.355, 410.956 517.914 C 413.217 510.451, 417.896 507.109, 425.405 507.594 C 431.615 507.994, 430.220 505.982, 423.837 505.332 C 420.618 505.004, 418.647 505.426, 416.190 506.967 M 392.385 570.601 C 395.361 583.348, 418.885 616.846, 420.808 611.075 C 421.005 610.484, 420.470 610, 419.619 610 C 417.568 610, 415.757 606.643, 417.089 605.311 C 417.750 604.650, 417.566 603.885, 416.542 603.035 C 415.694 602.331, 415 602.123, 415 602.572 C 415 603.021, 413.854 601.839, 412.453 599.944 C 411.052 598.050, 410.106 595.728, 410.350 594.784 C 410.595 593.840, 410.318 593.165, 409.735 593.284 C 408.580 593.519, 394.022 572.251, 394.008 570.309 C 394.004 569.654, 393.484 568.799, 392.854 568.410 C 392.041 567.907, 391.905 568.544, 392.385 570.601 M 593 581.628 C 587.277 586.302, 579.787 592.150, 569.417 600.039 C 563.795 604.316, 563.546 604.667, 566.124 604.667 C 567.659 604.667, 569.152 604.047, 569.442 603.290 C 569.836 602.264, 570.456 602.174, 571.880 602.936 C 573.911 604.023, 576.718 602.051, 575.241 600.575 C 574.834 600.167, 575.175 599.983, 576 600.167 C 576.830 600.351, 577.377 599.909, 577.225 599.176 C 577.074 598.447, 577.358 598.103, 577.856 598.411 C 579.550 599.458, 588.093 591.805, 595.898 582.250 C 601.113 575.865, 600.276 575.686, 593 581.628 M 607.809 579.750 C 603.146 584.749, 593.110 600.122, 593.628 601.472 C 593.907 602.201, 593.586 603.138, 592.914 603.553 C 592.080 604.068, 591.949 603.892, 592.500 603 C 593.045 602.118, 592.919 601.932, 592.114 602.430 C 591.456 602.836, 591.193 604.034, 591.529 605.092 C 592.179 607.138, 589.200 614.044, 584.022 622.500 C 580.344 628.505, 576 637.438, 576 638.995 C 576 639.613, 575.474 639.793, 574.830 639.395 C 574.027 638.899, 573.875 639.233, 574.347 640.463 C 574.725 641.448, 574.689 642.780, 574.267 643.424 C 573.845 644.068, 574.514 643.448, 575.754 642.047 C 580.972 636.150, 600.475 600.763, 608.434 582.750 C 611.341 576.171, 611.306 576.001, 607.809 579.750 M 403.423 605.500 C 405.443 614.523, 424.084 647.289, 426.640 646.308 C 427.878 645.833, 427.915 645.562, 426.834 644.876 C 426.100 644.411, 425.924 644.024, 426.441 644.015 C 426.959 644.007, 426.509 643.362, 425.443 642.582 C 424.376 641.802, 423.842 640.825, 424.255 640.412 C 424.669 639.998, 424.241 638.499, 423.304 637.080 C 422.367 635.661, 418.059 627.975, 413.729 620 C 405.304 604.480, 402.225 600.149, 403.423 605.500 M 407.461 632.500 C 409.594 645.973, 416.205 663.252, 418.831 662.217 C 420.309 661.634, 420.283 661.515, 418.605 661.178 C 417.254 660.907, 417.067 660.576, 417.956 660.027 C 418.901 659.443, 418.308 656.753, 415.497 648.879 C 413.458 643.170, 411.534 637.600, 411.220 636.500 C 410.906 635.400, 409.789 633.150, 408.738 631.500 L 406.827 628.500 407.461 632.500 M 188.285 646.931 C 171.742 651.427, 154.272 661.317, 142.250 672.990 C 136.267 678.799, 133.587 682.390, 138.209 678.405 C 139.424 677.357, 141.058 676.050, 141.839 675.500 C 142.621 674.950, 144.696 673.038, 146.451 671.250 C 148.206 669.462, 149.966 668, 150.363 668 C 150.759 668, 152.076 667.075, 153.290 665.945 C 165.645 654.434, 199.977 647.358, 218.500 652.506 C 221.800 653.423, 225.850 654.526, 227.500 654.957 C 233.367 656.490, 249.553 665.804, 254.835 670.687 C 257.560 673.206, 263.995 678.337, 265.637 679.300 C 266.386 679.740, 267 680.752, 267 681.550 C 267 682.347, 267.513 683, 268.140 683 C 268.767 683, 269.925 683.788, 270.714 684.750 C 271.560 685.782, 271.840 685.885, 271.397 685 C 270.984 684.175, 272.925 685.525, 275.712 688 C 278.498 690.475, 283.831 694.750, 287.563 697.500 C 291.296 700.250, 295.338 703.400, 296.546 704.500 C 297.754 705.600, 299.299 706.629, 299.978 706.786 C 302.261 707.313, 304.002 709.829, 303.363 711.676 C 302.811 713.268, 302.935 713.246, 304.334 711.500 C 305.321 710.268, 305.949 710.003, 305.968 710.809 C 305.986 711.529, 306.419 711.859, 306.931 711.543 C 307.443 711.226, 308.164 711.456, 308.533 712.054 C 308.903 712.652, 312.084 714.516, 315.603 716.197 C 319.121 717.877, 322 719.632, 322 720.095 C 322 720.558, 322.617 720.700, 323.371 720.411 C 324.125 720.122, 325.422 720.564, 326.252 721.395 C 327.082 722.225, 327.968 722.699, 328.219 722.448 C 328.802 721.864, 335.084 723.964, 336.815 725.322 C 337.538 725.889, 339.113 726.442, 340.315 726.550 C 341.517 726.658, 344.975 727.340, 348 728.065 C 354.862 729.709, 376.740 729.853, 379.500 728.272 C 381.080 727.367, 379.926 727.245, 374 727.687 C 348.305 729.607, 316.289 715.616, 285.611 689.060 C 243.438 652.554, 232.500 646.521, 206.500 645.431 C 197.640 645.060, 194.097 645.351, 188.285 646.931 M 405 648.780 C 405 653.056, 399.504 692.208, 398.319 696.375 C 398.011 697.457, 398.200 697.995, 398.764 697.646 C 399.302 697.314, 400.020 695.652, 400.359 693.955 C 400.765 691.925, 401.381 691.118, 402.158 691.598 C 402.968 692.098, 403.130 691.782, 402.674 690.593 C 402.308 689.639, 402.658 685.853, 403.453 682.179 C 404.248 678.506, 405.180 672.804, 405.526 669.510 C 405.871 666.215, 406.577 663.010, 407.094 662.387 C 407.611 661.763, 407.736 660.476, 407.372 659.526 C 406.988 658.525, 407.269 657.452, 408.040 656.976 C 409.147 656.291, 409.144 655.468, 408.025 652.076 C 406.854 648.528, 405 646.508, 405 648.780 M 388.617 689.934 C 376.753 703.993, 364.562 713.791, 354.184 717.608 C 347.798 719.956, 346.624 721.236, 351.196 720.862 C 353.229 720.695, 355.217 720.884, 355.613 721.280 C 356.009 721.676, 356.821 721.993, 357.417 721.985 C 358.033 721.976, 357.944 721.617, 357.211 721.152 C 355.624 720.145, 363.699 716.723, 365.388 717.687 C 366 718.035, 366.195 717.981, 365.822 717.566 C 365.079 716.738, 369.389 712.742, 375.262 708.815 C 379.633 705.892, 385.427 700.658, 389.023 696.384 C 390.409 694.737, 392.255 693.116, 393.124 692.783 C 394.516 692.248, 396.680 683.347, 395.664 682.331 C 395.476 682.143, 392.305 685.564, 388.617 689.934 M 421.170 700.594 C 418.068 702.766, 418.421 709.558, 421.750 711.757 C 422.988 712.575, 424 712.792, 424 712.239 C 424 711.686, 423.204 711.025, 422.231 710.771 C 417.980 709.659, 420.555 702.118, 425.215 702.032 C 427.128 701.996, 429.427 705.500, 428.487 707.021 C 428.154 707.559, 428.359 708, 428.941 708 C 430.709 708, 430.124 702.423, 428.171 700.655 C 425.878 698.580, 424.067 698.564, 421.170 700.594 M 504.389 722.342 C 501.332 724.971, 500.669 730.119, 503.083 732.482 C 509.634 738.893, 518.635 729.890, 512.927 722.635 C 510.368 719.381, 507.928 719.298, 504.389 722.342 M 504.436 725.071 C 501.135 728.719, 505.234 733.911, 510.392 732.616 C 513.471 731.844, 514.338 729.478, 512.753 726.171 C 511.174 722.876, 506.930 722.315, 504.436 725.071 M 468 732.379 C 466.075 734.232, 463.381 737.325, 462.014 739.252 C 460.647 741.179, 459.072 742.660, 458.514 742.542 C 457.956 742.424, 457.833 742.515, 458.240 742.744 C 458.647 742.973, 457.815 744.687, 456.392 746.553 C 454.112 749.542, 453.628 749.771, 452.330 748.473 C 450.387 746.530, 449.403 746.576, 451.028 748.534 C 453.446 751.448, 446.195 758.862, 443.532 756.199 C 443.181 755.848, 443.202 756.362, 443.577 757.340 C 444.074 758.635, 443.682 759.270, 442.141 759.673 C 440.976 759.978, 440.269 760.626, 440.570 761.114 C 440.872 761.601, 440.615 762, 440 762 C 439.385 762, 439.160 762.450, 439.500 763 C 439.840 763.550, 439.641 764, 439.059 764 C 438.477 764, 438 764.675, 438 765.500 C 438 766.325, 437.536 767, 436.969 767 C 436.403 767, 434.556 768.575, 432.866 770.500 C 429.992 773.773, 427.010 775.411, 428.595 772.845 C 429.049 772.112, 428.869 771.963, 428.102 772.437 C 427.438 772.848, 427.066 773.699, 427.276 774.329 C 427.860 776.079, 418.761 784.161, 417.560 782.960 C 416.902 782.302, 416.036 783.069, 414.995 785.233 C 414.101 787.090, 412.719 788.446, 411.791 788.374 C 410.848 788.302, 410.365 788.788, 410.648 789.525 C 410.918 790.228, 409.967 791.634, 408.536 792.651 C 407.105 793.668, 404.075 795.920, 401.804 797.656 C 399.532 799.392, 397.181 800.623, 396.580 800.392 C 395.978 800.161, 395.039 800.962, 394.493 802.172 C 393.218 804.996, 391.023 805.710, 390.921 803.333 C 390.861 801.938, 390.713 801.858, 390.300 803 C 389.435 805.393, 382.790 811.016, 380.027 811.693 C 378.637 812.034, 374.181 813.817, 370.125 815.656 C 366.069 817.495, 362.187 819, 361.498 819 C 360.809 819, 359.721 819.631, 359.081 820.402 C 358.442 821.173, 356.699 822.099, 355.209 822.460 C 353.719 822.820, 349.707 824.221, 346.293 825.572 C 342.880 826.923, 339.730 827.939, 339.293 827.829 C 338.857 827.719, 336.705 828.409, 334.512 829.363 C 332.318 830.317, 328.943 831.494, 327.012 831.980 C 320.482 833.623, 310.462 837.792, 304.140 841.497 C 300.681 843.525, 297.650 844.983, 297.405 844.738 C 297.160 844.493, 294.403 846.672, 291.278 849.581 C 288.153 852.489, 285.226 854.640, 284.773 854.360 C 284.321 854.080, 284.074 854.447, 284.225 855.176 C 284.376 855.904, 283.904 856.376, 283.176 856.225 C 282.384 856.061, 282.144 856.424, 282.578 857.127 C 282.978 857.774, 282.667 858.798, 281.887 859.402 C 281.106 860.006, 278.918 863.087, 277.023 866.250 C 275.128 869.413, 272.885 872.007, 272.039 872.015 C 270.798 872.028, 270.762 872.197, 271.852 872.887 C 272.911 873.558, 272.701 874.096, 270.879 875.372 C 269.601 876.267, 269.095 877, 269.756 877 C 271.227 877, 269.410 881.839, 267.259 883.649 C 266.263 884.488, 266.214 884.905, 267.081 885.194 C 267.913 885.471, 267.793 886.064, 266.682 887.176 C 265.809 888.048, 265.344 889.011, 265.648 889.314 C 265.952 889.618, 265.830 890.459, 265.378 891.183 C 264.926 891.908, 264.475 892.950, 264.375 893.500 C 264.275 894.050, 263.859 895.400, 263.449 896.500 C 262.944 897.860, 263.034 898.180, 263.732 897.500 C 264.297 896.950, 265.311 894.700, 265.987 892.500 C 274.610 864.437, 293.007 849.581, 337.298 834.916 C 386.916 818.487, 415.131 798.204, 455.422 750 C 471.481 730.787, 475.494 725.165, 468 732.379 M 341.500 762.017 C 281.991 782.599, 274.380 786.123, 259.912 799.800 C 243.060 815.729, 235.142 832.286, 234.232 853.500 C 233.721 865.397, 234.452 867.533, 235.429 857 C 236.347 847.093, 237.090 843.030, 238.672 839.244 C 239.467 837.341, 239.882 835.548, 239.594 835.260 C 238.800 834.466, 240.982 830.871, 241.910 831.444 C 242.355 831.719, 242.601 830.870, 242.457 829.556 C 242.313 828.243, 243.051 826.249, 244.097 825.126 C 245.144 824.003, 246 822.615, 246 822.042 C 246 821.469, 246.563 820.993, 247.250 820.985 C 248.083 820.974, 248 820.646, 247 820 C 245.966 819.332, 245.895 819.026, 246.771 819.015 C 247.471 819.007, 248.549 817.889, 249.168 816.531 C 249.786 815.174, 250.625 814.269, 251.033 814.520 C 251.440 814.772, 252.079 813.970, 252.454 812.739 C 252.867 811.380, 253.337 810.991, 253.651 811.750 C 254.593 814.033, 257.205 813.220, 256.461 810.876 C 255.740 808.605, 264.783 799, 267.642 799 C 268.389 799, 269.004 798.663, 269.008 798.250 C 269.012 797.837, 270.025 796.986, 271.258 796.357 C 286.084 788.799, 291.555 786.331, 299.813 783.473 C 319.147 776.781, 317.973 777.283, 343.500 764.793 C 357.546 757.921, 356.708 756.758, 341.500 762.017 M 373.273 866.750 C 371.610 873.212, 369.326 881.425, 368.196 885 C 365.723 892.823, 367.968 890.373, 371.793 881.074 C 374.875 873.580, 378.334 855, 376.647 855 C 376.453 855, 374.935 860.288, 373.273 866.750 M 493.975 879.361 C 484.609 888.244, 475.877 895.043, 474.702 894.369 C 474.041 893.990, 473.838 894.052, 474.252 894.509 C 474.666 894.965, 474.216 896.231, 473.252 897.324 C 471.510 899.298, 471.518 899.298, 474.500 897.448 C 480.923 893.463, 499.876 876.542, 498.951 875.618 C 498.676 875.342, 496.436 877.027, 493.975 879.361" stroke="none" fill="currentColor" fill-rule="evenodd"/>
</svg>